<?xml version="1.0" encoding="UTF-8"?>
<svg id="Camada_2" data-name="Camada 2" xmlns="http://www.w3.org/2000/svg" xmlns:xlink="http://www.w3.org/1999/xlink" viewBox="0 0 1036 766">
  <defs>
    <style>
      .cls-1 {
        fill: #4d4c4c;
      }

      .cls-1, .cls-2, .cls-3, .cls-4, .cls-5, .cls-6, .cls-7, .cls-8, .cls-9, .cls-10 {
        fill-rule: evenodd;
      }

      .cls-2 {
        fill: #9d837d;
      }

      .cls-11 {
        filter: url(#drop-shadow-2);
      }

      .cls-3 {
        fill: #fff;
      }

      .cls-4 {
        fill: #865729;
      }

      .cls-12 {
        fill: #fde6c9;
      }

      .cls-13, .cls-10 {
        fill: #f18c32;
      }

      .cls-14 {
        filter: url(#drop-shadow-1);
      }

      .cls-5 {
        fill: #fcd29c;
      }

      .cls-15 {
        fill: #e4232a;
      }

      .cls-6 {
        fill: #e12126;
      }

      .cls-7 {
        fill: #5f3010;
      }

      .cls-16 {
        filter: url(#drop-shadow-3);
      }

      .cls-8 {
        fill: #e63941;
      }

      .cls-9 {
        fill: #ede09f;
      }
    </style>
    <filter id="drop-shadow-1" x="253.6" y="610.05" width="144" height="74" filterUnits="userSpaceOnUse">
      <feOffset dx="1.7" dy=".57"/>
      <feGaussianBlur result="blur" stdDeviation="1.13"/>
      <feFlood flood-color="#1d1d1b" flood-opacity=".45"/>
      <feComposite in2="blur" operator="in"/>
      <feComposite in="SourceGraphic"/>
    </filter>
    <filter id="drop-shadow-2" x="602.6" y="614.05" width="144" height="74" filterUnits="userSpaceOnUse">
      <feOffset dx="-1.7" dy=".57"/>
      <feGaussianBlur result="blur-2" stdDeviation="1.13"/>
      <feFlood flood-color="#1d1d1b" flood-opacity=".45"/>
      <feComposite in2="blur-2" operator="in"/>
      <feComposite in="SourceGraphic"/>
    </filter>
    <filter id="drop-shadow-3" x="379.84" y="421.92" width="239.78" height="301.56" filterUnits="userSpaceOnUse">
      <feOffset dx="0" dy="2.83"/>
      <feGaussianBlur result="blur-3" stdDeviation="1.13"/>
      <feFlood flood-color="#1d1d1b" flood-opacity=".2"/>
      <feComposite in2="blur-3" operator="in"/>
      <feComposite in="SourceGraphic"/>
    </filter>
  </defs>
  <g id="Camada_1-2" data-name="Camada 1">
    <g>
      <g>
        <ellipse class="cls-12" cx="506.34" cy="673.92" rx="366.42" ry="92.08"/>
        <g>
          <g class="cls-14">
            <polygon class="cls-2" points="323.66 618 334.46 613.67 341.87 619.4 354.91 616.87 358.3 623.39 372.31 622.94 371.34 629.68 384.95 631.3 379.73 637.53 391.61 641.13 382.59 646.29 391.61 651.46 379.73 655.05 384.95 661.28 371.34 662.91 372.31 669.65 358.3 669.2 354.91 675.71 341.87 673.18 334.46 678.91 323.66 674.59 312.92 678.91 305.45 673.18 292.47 675.71 289.02 669.2 275.07 669.65 276.04 662.91 262.37 661.28 267.66 655.05 255.77 651.46 264.78 646.29 255.77 641.13 267.66 637.53 262.37 631.3 276.04 629.68 275.07 622.94 289.02 623.39 292.47 616.87 305.45 619.4 312.92 613.67 323.66 618"/>
          </g>
          <polygon class="cls-8" points="225.78 555.62 255.77 641.13 267.66 637.53 238.76 563.09 225.78 555.62"/>
          <polygon class="cls-8" points="235.37 541.47 262.37 631.3 276.04 629.68 242.96 550.51 235.37 541.47"/>
          <polygon class="cls-8" points="225.78 570.56 255.77 651.46 267.66 655.05 242.96 575.66 225.78 570.56"/>
          <polygon class="cls-8" points="308.15 610.08 312.92 678.91 323.66 674.59 323.66 603.85 308.15 610.08"/>
          <polygon class="cls-6" points="297.47 601.83 305.45 673.18 312.92 678.91 308.15 610.08 297.47 601.83"/>
          <polygon class="cls-8" points="278.69 605.48 297.47 601.83 305.45 673.18 292.47 675.71 278.69 605.48"/>
          <polygon class="cls-6" points="273.8 596.05 278.69 605.48 292.47 675.71 289.02 669.2 273.8 596.05"/>
          <polygon class="cls-6" points="235.37 584.7 262.37 661.28 276.04 662.91 255.02 587.06 235.37 584.7"/>
          <polygon class="cls-8" points="253.58 596.72 275.07 669.65 289.02 669.2 273.8 596.05 253.58 596.72"/>
          <polygon class="cls-8" points="421.6 555.62 391.61 641.13 379.73 637.53 408.56 563.09 421.6 555.62"/>
          <polygon class="cls-8" points="412.01 541.47 384.95 631.3 371.34 629.68 404.42 550.51 412.01 541.47"/>
          <polygon class="cls-6" points="421.6 570.56 391.61 651.46 379.73 655.05 404.42 575.66 421.6 570.56"/>
          <polygon class="cls-6" points="339.17 610.08 334.46 678.91 323.66 674.59 323.66 603.85 339.17 610.08"/>
          <polygon class="cls-8" points="349.91 601.83 341.87 673.18 334.46 678.91 339.17 610.08 349.91 601.83"/>
          <polygon class="cls-6" points="368.7 605.48 349.91 601.83 341.87 673.18 354.91 675.71 368.7 605.48"/>
          <polygon class="cls-8" points="373.58 596.05 368.7 605.48 354.91 675.71 358.3 669.2 373.58 596.05"/>
          <polygon class="cls-8" points="412.01 584.7 384.95 661.28 371.34 662.91 392.36 587.06 412.01 584.7"/>
          <polygon class="cls-6" points="393.8 596.72 372.31 669.65 358.3 669.2 373.58 596.05 393.8 596.72"/>
          <polygon class="cls-1" points="323.66 522.33 339.17 516.1 349.91 524.3 368.7 520.7 373.58 530.13 393.8 529.4 392.36 539.11 412.01 541.47 404.42 550.51 421.6 555.62 408.56 563.09 421.6 570.56 404.42 575.66 412.01 584.7 392.36 587.06 393.8 596.72 373.58 596.05 368.7 605.48 349.91 601.83 339.17 610.08 323.66 603.85 308.15 610.08 297.47 601.83 278.69 605.48 273.8 596.05 253.58 596.72 255.02 587.06 235.37 584.7 242.96 575.66 225.78 570.56 238.76 563.09 225.78 555.62 242.96 550.51 235.37 541.47 255.02 539.11 253.58 529.4 273.8 530.13 278.69 520.7 297.47 524.3 308.15 516.1 323.66 522.33"/>
          <g>
            <path class="cls-4" d="M404.42,550.51h0c-.92-3.54-2.07-7.02-3.44-10.33-12.29-29.93-42.28-51.04-77.32-51.04s-64.97,21.11-77.32,51.04c-1.38,3.31-2.52,6.79-3.44,10.33h0c-1.67,6.4-2.53,13.14-2.53,20.04,0,1.46.06,2.97.11,4.43.06,1.12.17,2.25.23,3.31.23,2.41.58,4.83,1.03,7.19l13.21,1.57-1.44,9.71,20.22-.67,4.88,9.43,18.78-3.65,10.74,8.25,15.51-6.23,15.51,6.23,10.74-8.25,18.78,3.65,4.88-9.43,20.22.67-1.43-9.71,13.21-1.57c.46-2.36.8-4.78,1.03-7.19.12-1.12.17-2.19.23-3.31.06-1.46.11-2.92.11-4.43,0-6.96-.86-13.64-2.53-20.04Z"/>
            <g>
              <path class="cls-7" d="M286.15,533.84c4.25-4.04,9.19-7.24,14.71-9.49,2.64-1.06,1.49-5.28-1.21-4.21-6.26,2.53-11.77,6.01-16.66,10.61-2.07,1.97,1.09,5.06,3.16,3.09h0Z"/>
              <path class="cls-7" d="M303.1,543.77c3.04-1.68,6.26-2.64,9.71-2.81,2.87-.17,2.87-4.49,0-4.38-4.25.22-8.27,1.35-12.01,3.42-2.41,1.35-.17,5.17,2.3,3.76h0Z"/>
              <path class="cls-7" d="M317.97,531.71c2.18.34,4.02,1.29,5.57,2.86,1.95,2.08,5.11-1.01,3.16-3.09-1.95-2.13-4.65-3.54-7.52-3.99-1.21-.17-2.41.28-2.76,1.51-.29,1.07.35,2.52,1.55,2.7h0Z"/>
              <path class="cls-7" d="M304.65,553.88c3.1,1.57,5.98,3.42,8.62,5.67,2.18,1.85,5.34-1.24,3.16-3.09-2.93-2.47-6.09-4.61-9.53-6.35-2.53-1.29-4.77,2.47-2.24,3.76h0Z"/>
              <path class="cls-7" d="M292.01,554.95c2.07,1.51,4.19,2.97,6.26,4.49.97.73,2.47.17,3.04-.79.69-1.12.17-2.3-.8-2.97-2.07-1.51-4.19-2.98-6.26-4.49-.97-.73-2.47-.17-3.04.79-.63,1.12-.17,2.3.8,2.98h0Z"/>
              <path class="cls-7" d="M279.15,555.57c1.95,1.96,3.45,4.16,4.71,6.62,1.26,2.53,5.11.34,3.85-2.19-1.38-2.75-3.22-5.28-5.4-7.47-2.01-2.08-5.17,1.01-3.16,3.03h0Z"/>
              <path class="cls-7" d="M267.89,554.61c3.56-2.75,7.24-5.28,11.14-7.58,2.47-1.46.23-5.22-2.24-3.76-4.19,2.52-8.16,5.28-12.01,8.31-2.35,1.68.86,4.77,3.1,3.03h0Z"/>
              <path class="cls-7" d="M266.34,563.54c1.32,2.47,2.64,4.94,3.96,7.41,1.32,2.47,5.17.28,3.85-2.19-1.32-2.47-2.64-4.94-3.96-7.41-1.32-2.47-5.17-.28-3.85,2.19h0Z"/>
              <path class="cls-7" d="M268.75,539.45c2.53-1.68,5.11-3.31,7.64-5,2.35-1.57.17-5.33-2.24-3.76-2.53,1.68-5.11,3.31-7.64,5-2.41,1.57-.17,5.33,2.24,3.76h0Z"/>
              <path class="cls-7" d="M284.14,542.82c2.01-.28,3.91-1.07,5.63-2.19.98-.67,1.44-1.91.8-2.97-.57-.95-2.07-1.46-3.04-.79-1.38.96-2.87,1.46-4.54,1.74-1.2.17-1.84,1.63-1.55,2.69.29,1.24,1.49,1.74,2.7,1.52h0Z"/>
              <path class="cls-7" d="M287.99,513.74c4.65-.22,9.36-.51,14.02-.73,2.87-.17,2.87-4.49,0-4.38-4.65.22-9.36.5-14.02.73-2.81.17-2.87,4.49,0,4.38h0Z"/>
              <path class="cls-7" d="M307.23,500.88c3.39,1.91,6.78,3.76,10.17,5.67,2.53,1.41,4.77-2.35,2.24-3.76-3.39-1.91-6.78-3.76-10.17-5.67-2.47-1.4-4.77,2.36-2.24,3.76h0Z"/>
              <path class="cls-7" d="M275.18,519.91c3.39-5.28,7.12-10.27,11.26-15.05,1.84-2.13-1.32-5.22-3.16-3.09-4.36,5.06-8.33,10.33-11.95,15.95-1.55,2.41,2.3,4.6,3.85,2.19h0Z"/>
              <path class="cls-7" d="M297.47,500.88c2.93-1.91,5.92-3.82,8.84-5.73,2.41-1.57.17-5.33-2.24-3.76-2.93,1.91-5.92,3.82-8.84,5.73-2.41,1.57-.17,5.33,2.24,3.76h0Z"/>
              <path class="cls-7" d="M265.99,517.33c3.04-2.75,6.55-5,10.39-6.51,2.64-1.07,1.49-5.28-1.2-4.21-4.6,1.85-8.73,4.32-12.35,7.63-2.07,1.91,1.09,5,3.16,3.09h0Z"/>
              <path class="cls-7" d="M251.86,531.31c2.87-4.04,7.01-6.85,11.83-8.14,2.76-.73,1.61-4.94-1.21-4.21-5.97,1.63-10.97,5.16-14.47,10.16-1.67,2.3,2.18,4.44,3.85,2.19h0Z"/>
              <path class="cls-7" d="M309.76,530.19c2.3-1.91,4.54-3.82,6.84-5.78,2.18-1.86-.98-4.89-3.16-3.09-2.3,1.91-4.54,3.82-6.84,5.78-2.18,1.85.98,4.88,3.16,3.09h0Z"/>
              <path class="cls-7" d="M297.3,535.13c1.55.67,3.04.84,4.71.62,1.21-.17,1.84-1.63,1.55-2.7-.34-1.24-1.55-1.68-2.76-1.52.52-.05-.17,0-.23,0-.23,0-.4,0-.63-.05.52.05-.12-.06-.23-.06-.06,0-.69-.22-.23-.05-1.09-.5-2.41-.34-3.04.79-.52.9-.29,2.47.86,2.97h0Z"/>
              <path class="cls-7" d="M284.66,525.08c2.01-1.12,4.19-1.91,6.55-2.19,1.2-.17,2.24-.9,2.24-2.19,0-1.07-1.03-2.3-2.24-2.19-3.16.39-6.03,1.23-8.79,2.8-2.53,1.4-.29,5.17,2.24,3.76h0Z"/>
              <path class="cls-7" d="M257.55,534.46c-.17,3.48-.34,6.91-.52,10.39-.11,2.8,4.31,2.8,4.48,0,.17-3.48.34-6.91.52-10.39.12-2.81-4.31-2.81-4.48,0h0Z"/>
              <path class="cls-7" d="M248.82,541.42c1.38,2.75,2.75,5.45,4.08,8.2,1.26,2.53,5.11.34,3.85-2.19-1.38-2.75-2.76-5.45-4.08-8.2-1.26-2.53-5.11-.34-3.85,2.19h0Z"/>
              <path class="cls-7" d="M244.11,558.49c2.64,3.99,5.46,7.86,8.5,11.62,1.78,2.19,4.88-.9,3.16-3.09-2.76-3.48-5.34-7.02-7.82-10.73-1.55-2.35-5.46-.17-3.85,2.19h0Z"/>
              <path class="cls-7" d="M257.43,581.06c3.96-2.08,7.93-4.16,11.89-6.23,2.53-1.35.29-5.11-2.24-3.76-3.96,2.08-7.93,4.16-11.89,6.23-2.53,1.35-.29,5.11,2.24,3.76h0Z"/>
              <path class="cls-7" d="M257.89,556.86c.23,2.08.63,4.04,1.43,5.95.46,1.12,1.49,1.85,2.76,1.51,1.09-.28,2.01-1.57,1.55-2.7-.63-1.51-1.15-3.14-1.26-4.77-.12-1.18-.92-2.19-2.24-2.19-1.15.06-2.35,1.01-2.24,2.19h0Z"/>
              <path class="cls-7" d="M281.56,570.05c.86,1.51,2.01,2.69,3.39,3.7.98.73,2.47.17,3.04-.79.69-1.12.17-2.25-.81-2.97.4.28-.23-.22-.29-.28-.23-.22-.46-.45-.69-.67-.17-.17-.17-.22,0,0-.06-.11-.17-.22-.23-.34-.17-.28-.34-.56-.52-.84-.57-1.07-2.01-1.35-3.04-.79-1.15.62-1.43,1.91-.86,2.98h0Z"/>
              <path class="cls-7" d="M296.55,568.08c.23,2.3.69,4.61,1.43,6.79.92,2.64,5.23,1.51,4.31-1.18-.63-1.85-1.09-3.71-1.26-5.62-.12-1.18-.92-2.19-2.24-2.19-1.15,0-2.35,1.01-2.24,2.19h0Z"/>
              <path class="cls-7" d="M297.41,586.61c3.73-3.31,8.1-5.44,13.04-6.45,2.82-.56,1.61-4.77-1.2-4.21-5.69,1.18-10.74,3.76-14.99,7.58-2.12,1.91,1.09,5,3.16,3.09h0Z"/>
              <path class="cls-7" d="M305.86,591.38c2.12-.89,4.08-2.24,5.74-3.82,2.07-1.96-1.09-5.05-3.16-3.09-1.43,1.34-3.04,2.36-4.83,3.14-1.09.51-1.38,2.02-.8,2.98.63,1.12,1.9,1.29,3.04.78h0Z"/>
              <path class="cls-7" d="M287.99,579.03c-1.03,1.63-2.01,3.31-3.04,4.94-1.49,2.41,2.35,4.61,3.85,2.19,1.03-1.63,2.01-3.31,3.04-4.94,1.49-2.41-2.35-4.61-3.85-2.19h0Z"/>
              <path class="cls-7" d="M310.74,568.87c1.55,1.8,3.16,3.59,4.71,5.39.8.9,2.36.79,3.16,0,.92-.9.8-2.19,0-3.09-1.55-1.8-3.16-3.59-4.71-5.39-.8-.9-2.35-.79-3.16,0-.92.9-.75,2.19,0,3.09h0Z"/>
              <path class="cls-7" d="M315.22,587.45c.98,2.19,1.95,4.44,2.99,6.62.46,1.07,2.07,1.35,3.04.79,1.15-.67,1.26-1.91.8-2.97-.97-2.19-1.95-4.44-2.98-6.62-.46-1.07-2.07-1.35-3.05-.79-1.15.62-1.32,1.85-.8,2.97h0Z"/>
              <path class="cls-7" d="M308.5,597.11c.05,1.18-.06,2.36-.58,3.48-.52,1.06-.34,2.35.81,2.97.97.56,2.58.28,3.04-.79.8-1.8,1.26-3.65,1.2-5.67-.05-1.18-.97-2.19-2.24-2.19-1.21.05-2.3,1.01-2.24,2.19h0Z"/>
              <path class="cls-7" d="M294.37,601.88c2.07-1.29,4.31-2.19,6.72-2.7,2.81-.56,1.61-4.77-1.21-4.21-2.75.56-5.4,1.63-7.81,3.15-2.35,1.46-.12,5.28,2.3,3.76h0Z"/>
              <path class="cls-7" d="M284.95,601.49c1.03-1.91,2.13-3.82,3.16-5.67,1.38-2.47-2.47-4.66-3.85-2.19-1.03,1.91-2.12,3.82-3.16,5.67-1.38,2.47,2.47,4.66,3.85,2.19h0Z"/>
              <path class="cls-7" d="M279.55,596.55c1.61-1.63,1.84-3.87.92-5.9-.52-1.06-2.07-1.35-3.04-.79-1.15.62-1.32,1.91-.8,2.97-.23-.45,0,.11,0,.17q-.06-.28-.06,0c0,.28,0,.22,0,0,0,.05-.23.62,0,.17-.06.11-.12.22-.17.34q.17-.17,0,0c-.86.84-.86,2.25,0,3.09.8.73,2.3.79,3.16-.05h0Z"/>
              <path class="cls-7" d="M264.61,594.7c2.01-1.07,3.96-2.19,5.97-3.26,2.53-1.35.29-5.11-2.24-3.76-2.01,1.07-3.96,2.19-5.98,3.25-2.52,1.4-.29,5.17,2.24,3.76h0Z"/>
              <path class="cls-7" d="M263.81,587.45c.12-.28.29-.56.4-.84.52-1.06.29-2.36-.8-2.97-.97-.56-2.52-.28-3.04.79-.12.28-.29.56-.4.84-.52,1.07-.29,2.36.8,2.97.97.56,2.52.28,3.04-.79h0Z"/>
              <path class="cls-7" d="M242.79,571.96c.46,3.31,1.66,6.46,3.45,9.32,1.49,2.42,5.34.22,3.85-2.19-1.61-2.58-2.59-5.28-3.05-8.25-.17-1.18-1.66-1.79-2.75-1.51-1.21.34-1.67,1.46-1.49,2.64h0Z"/>
              <path class="cls-7" d="M250.71,572.63c-.12,2.08,1.38,3.93,3.39,4.55,1.15.34,2.41-.39,2.76-1.51.35-1.18-.4-2.3-1.55-2.7-.23-.05-.17-.05.12.06-.06-.06-.17-.11-.23-.17.23.22.29.22.12.06-.12-.11-.34-.45,0,0-.06-.06-.12-.17-.12-.22.12.34.17.34.06.11,0-.11-.06-.17-.06-.28.12.56.06.22.06,0,.06-1.18-1.09-2.19-2.24-2.19-1.32.11-2.24,1.12-2.3,2.3h0Z"/>
              <path class="cls-7" d="M303.04,563.26c.4,1.68.86,3.31,1.26,5,.69,2.75,5,1.57,4.31-1.18-.4-1.68-.86-3.31-1.26-5-.69-2.69-5-1.57-4.31,1.18h0Z"/>
              <path class="cls-7" d="M315.68,550.46c1.26,2.86,3.16,5.39,5.52,7.41,2.18,1.85,5.34-1.24,3.16-3.09-2.13-1.8-3.73-3.93-4.83-6.51-.46-1.07-2.12-1.35-3.04-.79-1.15.67-1.26,1.91-.8,2.97h0Z"/>
              <path class="cls-7" d="M322.28,549.73c1.03,1.06,1.84,2.08,2.64,3.25.69,1.01,1.95,1.4,3.04.79,1.03-.56,1.49-1.96.8-2.98-.97-1.46-2.12-2.86-3.33-4.16-.8-.9-2.3-.84-3.16,0-.92.9-.86,2.25,0,3.09h0Z"/>
              <path class="cls-7" d="M337.16,565.67c2.36-2.36,4.94-4.38,7.87-6.01,2.47-1.4.23-5.16-2.24-3.76-3.22,1.8-6.21,4.04-8.79,6.68-2.01,2.02,1.15,5.11,3.16,3.09h0Z"/>
              <path class="cls-7" d="M342.73,552.37c2.24-.45,4.54-.9,6.78-1.41,2.81-.56,1.61-4.77-1.21-4.21-2.24.45-4.54.9-6.78,1.41-2.76.62-1.55,4.77,1.2,4.21h0Z"/>
              <path class="cls-7" d="M346.58,563.71c1.78,1.01,3.22,2.41,4.31,4.21,1.49,2.41,5.34.22,3.85-2.19-1.44-2.36-3.45-4.38-5.92-5.78-2.53-1.41-4.77,2.35-2.24,3.76h0Z"/>
              <path class="cls-7" d="M357.21,555.45c.92,1.85,2.18,3.59,3.73,5,2.07,1.96,5.23-1.12,3.16-3.09-1.26-1.24-2.24-2.58-3.04-4.16-.52-1.06-2.07-1.35-3.04-.79-1.09.73-1.32,1.97-.8,3.03h0Z"/>
              <path class="cls-7" d="M369.67,547.48c.92,3.54,2.7,6.68,5.11,9.49,1.9,2.13,5-.95,3.16-3.09-1.95-2.19-3.21-4.71-3.96-7.52-.75-2.75-5.05-1.57-4.31,1.12h0Z"/>
              <path class="cls-7" d="M365.71,572.02c-2.3,2.36-4.54,4.66-6.84,7.02-1.95,2.02,1.15,5.11,3.16,3.09,2.3-2.36,4.54-4.66,6.84-7.02,1.95-2.08-1.15-5.16-3.16-3.09h0Z"/>
              <path class="cls-7" d="M348.13,577.8c.06.28.06.34.06.17v.51c0-.17-.12.5-.17.62-.06.22-.4.62-.69.79-1.03.67-1.44,1.91-.8,2.98.57,1.01,2.01,1.46,3.04.79,2.35-1.51,3.56-4.27,2.81-7.02-.63-2.75-4.94-1.57-4.25,1.18h0Z"/>
              <path class="cls-7" d="M334.63,584.53c1.38.79,2.35,1.8,3.1,3.31.52,1.07,2.07,1.35,3.05.79,1.09-.62,1.32-1.91.8-2.98-1.03-2.02-2.7-3.71-4.71-4.83-2.47-1.46-4.77,2.3-2.24,3.71h0Z"/>
              <path class="cls-7" d="M331.24,598.68c1.72,1.51,3.79,2.64,6.09,3.09,1.2.22,2.41-.34,2.75-1.51.29-1.07-.34-2.42-1.55-2.7-1.55-.34-2.93-.96-4.13-1.96-2.13-1.86-5.29,1.18-3.16,3.09h0Z"/>
              <path class="cls-7" d="M328.43,577.46c2.12-.96,4.25-1.91,6.38-2.86,1.09-.51,1.38-2.02.81-2.98-.63-1.12-1.95-1.29-3.04-.79-2.13.96-4.25,1.91-6.38,2.87-1.09.5-1.38,2.02-.8,2.97.63,1.12,1.95,1.29,3.04.79h0Z"/>
              <path class="cls-7" d="M338.42,537.65c.86.96,1.72,1.91,2.53,2.92.8.9,2.35.79,3.16,0,.92-.9.81-2.19,0-3.09-.86-.96-1.72-1.91-2.53-2.92-.8-.9-2.35-.79-3.16,0-.92.9-.8,2.19,0,3.09h0Z"/>
              <path class="cls-7" d="M345.95,521.32c1.09,2.58,2.64,4.88,4.83,6.79,2.12,1.85,5.34-1.24,3.16-3.09-1.55-1.35-2.87-2.97-3.68-4.83-.46-1.12-1.43-1.85-2.76-1.51-1.03.28-2.01,1.57-1.55,2.64h0Z"/>
              <path class="cls-7" d="M363.01,518.85c.58,2.19,1.09,4.44,1.66,6.62.69,2.75,5,1.57,4.31-1.18-.57-2.19-1.09-4.44-1.66-6.63-.69-2.75-5-1.57-4.31,1.18h0Z"/>
              <path class="cls-7" d="M360.14,541.47c3.68-.95,7.35-1.91,11.09-2.81,2.75-.73,1.6-4.94-1.21-4.21-3.67.95-7.35,1.91-11.08,2.81-2.76.73-1.55,4.88,1.21,4.21h0Z"/>
              <path class="cls-7" d="M380.18,537.82c1.78.45,3.33,1.35,4.65,2.64,2.01,1.96,5.17-1.07,3.16-3.09-1.84-1.8-4.08-3.09-6.61-3.76-2.76-.67-3.96,3.48-1.21,4.21h0Z"/>
              <path class="cls-7" d="M384.38,555.45c1.84,1.4,3.79,2.7,5.97,3.71,1.09.5,2.41.28,3.04-.79.58-.96.29-2.47-.8-2.98-1.78-.84-3.5-1.79-5.05-2.97-.97-.73-2.24-.9-3.16,0-.8.73-.98,2.3,0,3.03h0Z"/>
              <path class="cls-7" d="M386.91,566.57c-2.01,1.51-3.62,3.37-5,5.39-1.55,2.36,2.3,4.55,3.85,2.19,1.15-1.74,2.64-3.26,4.31-4.55.97-.73.8-2.3,0-3.09-.92-.84-2.18-.67-3.16.06h0Z"/>
              <path class="cls-7" d="M372.08,583.3c.57.84,1.15,1.68,1.72,2.47.69,1.01,1.95,1.4,3.04.79.98-.56,1.49-1.96.8-2.97-.57-.84-1.15-1.68-1.72-2.47-.69-1.01-1.95-1.4-3.04-.79-1.03.56-1.49,1.96-.8,2.97h0Z"/>
              <path class="cls-7" d="M336.01,527.94c1.26-.62,2.59-.84,4.02-.84,2.87.06,2.87-4.32,0-4.38-2.18-.06-4.31.5-6.26,1.46-1.09.5-1.38,2.02-.81,2.97.63,1.06,1.95,1.35,3.04.79h0Z"/>
              <path class="cls-7" d="M332.57,515.76c2.81-.95,5.69-1.85,8.5-2.8,2.7-.9,1.55-5.11-1.21-4.21-2.81.95-5.68,1.85-8.5,2.8-2.7.9-1.55,5.11,1.21,4.21h0Z"/>
              <path class="cls-7" d="M330.21,496.28c1.9,1.85,3.85,3.7,5.75,5.56,2.07,1.96,5.23-1.12,3.16-3.09-1.89-1.85-3.85-3.71-5.74-5.56-2.01-1.97-5.17,1.12-3.16,3.09h0Z"/>
              <path class="cls-7" d="M347.38,499.09c1.61,2.08,3.16,4.1,4.77,6.17.75.95,1.9,1.46,3.05.79.97-.56,1.55-2.02.8-2.97-1.61-2.08-3.16-4.1-4.77-6.18-.75-.95-1.9-1.46-3.04-.79-.98.51-1.55,2.02-.81,2.98h0Z"/>
              <path class="cls-7" d="M264.78,528.84c2.3.45,4.6.45,6.89-.11,2.81-.67,1.61-4.88-1.21-4.21-1.49.34-3.04.39-4.54.11-1.2-.22-2.41.34-2.76,1.51-.23,1.07.4,2.41,1.61,2.7h0Z"/>
              <path class="cls-7" d="M242.67,544.45c1.2,2.97,2.76,5.67,4.77,8.14.75.95,2.35.79,3.16,0,.92-.9.75-2.13,0-3.09-1.49-1.91-2.7-4.04-3.62-6.23-.46-1.12-1.49-1.86-2.76-1.52-1.09.28-2.01,1.57-1.55,2.7h0Z"/>
              <path class="cls-7" d="M251.4,555.96c-.17,1.46.23,2.92.92,4.21.57,1.01,2.01,1.34,3.04.79,1.09-.62,1.38-1.97.8-2.98,0,0-.29-.62-.17-.28-.06-.22-.12-.39-.18-.62-.17-.62,0,.39-.05-.28,0-.28,0-.56.05-.84.18-1.18-1.15-2.19-2.24-2.19-1.32,0-2.07,1.01-2.18,2.19h0Z"/>
              <path class="cls-7" d="M267.31,547.2c.92-.9,1.95-1.57,3.1-1.96,1.15-.39,1.9-1.46,1.55-2.7-.29-1.06-1.61-1.91-2.76-1.51-1.95.67-3.62,1.68-5.11,3.09-1.95,2.02,1.21,5.11,3.22,3.09h0Z"/>
              <path class="cls-7" d="M272.65,555.51c.8,1.85,1.78,3.59,2.87,5.28,1.55,2.36,5.4.17,3.85-2.19-1.09-1.68-2.07-3.43-2.87-5.28-.52-1.06-2.07-1.35-3.04-.79-1.09.62-1.26,1.85-.8,2.98h0Z"/>
              <path class="cls-7" d="M286.38,549.67c3.16-.28,6.38-.56,9.54-.84,2.82-.28,2.87-4.61,0-4.38-3.16.28-6.38.56-9.54.84-2.81.22-2.87,4.6,0,4.38h0Z"/>
              <path class="cls-7" d="M275.53,525.3c.46.62.86,1.23,1.32,1.85.69.95,1.95,1.4,3.04.79.98-.56,1.49-2.02.8-2.97-.46-.62-.86-1.24-1.32-1.85-.69-.95-1.95-1.4-3.04-.79-.98.56-1.49,1.97-.81,2.98h0Z"/>
              <path class="cls-7" d="M302.64,519.13c2.99-.34,5.98-.73,8.96-1.06,2.81-.34,2.87-4.72,0-4.38-2.98.34-5.97.73-8.96,1.07-2.81.39-2.81,4.71,0,4.38h0Z"/>
              <path class="cls-7" d="M308.73,510.15c1.03.84,2.12,1.68,3.16,2.53.92.73,2.24.9,3.16,0,.8-.79.92-2.3,0-3.09-1.03-.84-2.12-1.68-3.16-2.53-.92-.73-2.24-.9-3.16,0-.81.79-.92,2.36,0,3.09h0Z"/>
              <path class="cls-7" d="M318.89,520.92c1.55,2.25,3.62,4.1,6.15,5.28,1.09.51,2.41.34,3.04-.79.58-.95.29-2.47-.8-2.98-1.84-.84-3.39-2.02-4.54-3.7-1.55-2.36-5.4-.17-3.85,2.19h0Z"/>
              <path class="cls-7" d="M320.27,514.64c1.2.84,2.35,1.63,3.56,2.47.97.67,2.47.17,3.04-.79.63-1.07.17-2.3-.8-2.98-1.2-.84-2.35-1.63-3.56-2.47-.98-.67-2.47-.17-3.04.79-.63,1.07-.18,2.25.8,2.98h0Z"/>
              <path class="cls-7" d="M327.51,507.28c2.76.22,5.52.45,8.27.67,2.87.22,2.87-4.1,0-4.38-2.75-.22-5.51-.45-8.27-.67-2.87-.22-2.87,4.16,0,4.38h0Z"/>
              <path class="cls-7" d="M316.82,496.73c1.95,1.29,4.02,2.3,6.21,3.2,1.15.45,2.47-.5,2.75-1.51.34-1.24-.46-2.25-1.55-2.7-1.78-.73-3.5-1.68-5.11-2.75-2.41-1.52-4.65,2.24-2.3,3.76h0Z"/>
              <path class="cls-7" d="M323.84,493.3c1.26-.56,2.58-.96,3.96-1.24,1.2-.28,1.89-1.57,1.55-2.7-.35-1.18-1.55-1.8-2.76-1.51-1.72.39-3.39.95-5.05,1.68-1.09.51-1.38,2.02-.8,2.98.69,1.12,1.95,1.29,3.1.79h0Z"/>
              <path class="cls-7" d="M312.98,493.64c1.78-.84,3.62-1.69,5.4-2.53,1.09-.5,1.38-2.02.8-2.97-.63-1.07-1.95-1.29-3.05-.79-1.78.84-3.62,1.68-5.4,2.52-1.09.51-1.38,2.02-.8,2.98.69,1.07,1.95,1.29,3.04.79h0Z"/>
              <path class="cls-7" d="M290.98,493.7c-2.76,2.64-3.1,6.35-3.16,9.94-.06,2.8,4.42,2.8,4.48,0,.06-2.36,0-5.11,1.84-6.85,2.07-1.96-1.09-5.05-3.16-3.09h0Z"/>
              <path class="cls-7" d="M296.26,506.44c1.72.11,3.39.22,5.11.39,1.21.11,2.24-1.07,2.24-2.19,0-1.23-1.03-2.08-2.24-2.19-1.72-.11-3.39-.22-5.11-.39-1.21-.11-2.24,1.07-2.24,2.19.05,1.24,1.03,2.08,2.24,2.19h0Z"/>
              <path class="cls-7" d="M324.81,540.91c1.66.84,3.04,1.85,4.25,3.2.8.9,2.29.79,3.16,0,.86-.84.8-2.19,0-3.09-1.49-1.57-3.22-2.86-5.17-3.87-1.09-.56-2.41-.28-3.04.79-.57,1.01-.29,2.47.8,2.97h0Z"/>
              <path class="cls-7" d="M333.54,541.53c.57,2.08,1.15,4.21,1.72,6.29.75,2.7,5.06,1.57,4.31-1.18-.58-2.08-1.15-4.21-1.72-6.29-.75-2.7-5.05-1.57-4.31,1.18h0Z"/>
              <path class="cls-7" d="M332.16,551.97c-1.49,2.02-2.64,4.21-3.62,6.51-.46,1.12.52,2.41,1.55,2.7,1.26.34,2.3-.45,2.76-1.52.8-1.96,1.95-3.76,3.16-5.45.69-.95.17-2.41-.8-2.97-1.15-.73-2.35-.28-3.04.73h0Z"/>
              <path class="cls-7" d="M324.12,563.82c.23.17.52.28.75.45q.23.17.06.05c.17.11.35.28.52.39.29.22.52.5.75.73q.17.22.05.06c.12.17.23.34.35.5.69,1.01,1.95,1.4,3.04.79.98-.56,1.49-1.96.8-2.97-1.03-1.57-2.41-2.87-4.08-3.82-1.03-.62-2.41-.22-3.04.79-.63,1.07-.29,2.41.8,3.03h0Z"/>
              <path class="cls-7" d="M318.55,566.85c.97,1.12,1.95,2.25,2.93,3.37.8.9,2.36.79,3.16,0,.92-.9.8-2.19,0-3.09-.98-1.12-1.95-2.25-2.93-3.37-.8-.9-2.35-.79-3.16,0-.92.9-.75,2.19,0,3.09h0Z"/>
              <path class="cls-7" d="M327.16,583.81c-1.38,1.85-2.76,3.7-4.13,5.61-.69.96-.18,2.41.8,2.97,1.15.67,2.35.17,3.04-.78,1.38-1.86,2.76-3.71,4.13-5.62.69-.95.17-2.41-.81-2.97-1.09-.67-2.29-.17-3.04.79h0Z"/>
              <path class="cls-7" d="M323.55,601.04c.8.33,1.66.73,2.47,1.07,1.09.5,2.41.34,3.05-.79.57-.95.29-2.47-.81-2.98-.8-.34-1.67-.73-2.47-1.07-1.09-.5-2.41-.34-3.04.79-.58.96-.35,2.53.8,2.98h0Z"/>
              <path class="cls-7" d="M315.56,579.54c1.09,1.63,2.7,2.81,4.65,3.31,1.21.28,2.41-.34,2.76-1.51.35-1.12-.4-2.41-1.55-2.7-.29-.05-.52-.11-.75-.22.23.11.23.06,0,0-.17-.11-.35-.17-.52-.28q-.23-.17,0,0c-.12-.06-.17-.17-.29-.28l-.29-.28c-.4-.45.23.34-.11-.17-.69-1.01-1.95-1.4-3.04-.79-1.03.51-1.55,1.91-.86,2.92h0Z"/>
              <path class="cls-7" d="M288.11,560.22c.75,2.58,1.43,5.22,2.18,7.81.75,2.7,5.05,1.57,4.31-1.18-.75-2.58-1.44-5.22-2.18-7.8-.8-2.64-5.05-1.52-4.31,1.18h0Z"/>
              <path class="cls-7" d="M274.95,569.32c.63,1.68,1.32,3.31,1.95,5,.46,1.12,1.49,1.85,2.75,1.52,1.09-.28,2.01-1.57,1.55-2.7-.63-1.68-1.32-3.31-1.95-5-.46-1.12-1.49-1.86-2.76-1.52-1.09.28-1.95,1.57-1.55,2.7h0Z"/>
              <path class="cls-7" d="M347.9,534.12c3.5.67,6.89.73,10.4.22,2.82-.39,1.61-4.6-1.21-4.21-2.7.39-5.4.34-8.04-.22-2.76-.56-3.96,3.65-1.15,4.21h0Z"/>
              <path class="cls-7" d="M348.59,541.25c1.61.28,3.21.56,4.82.84,1.21.22,2.41-.28,2.76-1.51.29-1.07-.34-2.47-1.55-2.7-1.61-.28-3.22-.56-4.83-.84-1.21-.22-2.41.28-2.76,1.51-.35,1.07.34,2.47,1.55,2.7h0Z"/>
              <path class="cls-7" d="M352.33,544.73v8.7c0,2.81,4.48,2.81,4.48,0v-8.7c0-2.81-4.48-2.81-4.48,0h0Z"/>
              <path class="cls-7" d="M360.54,547.42c1.14,2.08,2.58,3.99,4.25,5.67,2.01,2.02,5.11-1.06,3.16-3.09-1.43-1.46-2.58-3.03-3.56-4.77-1.38-2.47-5.23-.28-3.85,2.19h0Z"/>
              <path class="cls-7" d="M355.88,565.45c.86,1.57,1.72,3.09,2.59,4.66,1.38,2.47,5.23.28,3.85-2.19-.86-1.57-1.72-3.09-2.58-4.66-1.38-2.53-5.23-.28-3.85,2.19h0Z"/>
              <path class="cls-7" d="M339.17,568.31c.8,1.57,1.72,3.09,2.7,4.61.63,1.01,1.95,1.4,3.04.79,1.03-.56,1.43-1.97.8-2.98-.98-1.46-1.9-3.03-2.7-4.6-.52-1.06-2.07-1.35-3.04-.79-1.15.62-1.38,1.91-.8,2.97h0Z"/>
              <path class="cls-7" d="M336.76,577.4c.63,1.68,1.55,3.15,2.87,4.38.86.84,2.3.84,3.16,0,.86-.84.86-2.25,0-3.09-.23-.22-.46-.45-.63-.67q-.17-.22-.06-.11c-.12-.11-.17-.22-.29-.39-.17-.28-.35-.5-.46-.79-.05-.11-.11-.28-.23-.39.06.17.06.11-.06-.11-.4-1.12-1.49-1.85-2.76-1.51-1.09.28-1.95,1.57-1.55,2.69h0Z"/>
              <path class="cls-7" d="M347.84,595.43c2.81-.9,5.57-2.02,8.21-3.31,2.58-1.29.29-5.06-2.24-3.76-2.3,1.18-4.65,2.13-7.12,2.86-2.75.9-1.6,5.11,1.15,4.21h0Z"/>
              <path class="cls-7" d="M359.56,599.08c1.15-.95,2.53-1.8,3.91-2.36,1.15-.45,1.89-1.4,1.55-2.69-.29-1.01-1.61-1.97-2.76-1.52-2.18.9-4.08,2.02-5.92,3.48-.92.79-.8,2.3,0,3.09.98.9,2.3.73,3.22,0h0Z"/>
              <path class="cls-7" d="M363.98,588.97c1.38.67,2.36,1.35,3.39,2.41.86.84,2.3.84,3.16,0,.86-.84.86-2.24,0-3.09-1.26-1.24-2.7-2.3-4.31-3.09-1.09-.5-2.41-.28-3.04.79-.58.95-.29,2.41.8,2.97h0Z"/>
              <path class="cls-7" d="M356.4,584.82c.06-.22.12-.39.23-.62.12-.22.12-.28.05-.11.06-.11.12-.28.18-.39.29-.51.57-1.01.97-1.46.75-.96.17-2.41-.8-2.98-1.15-.67-2.35-.17-3.04.79-.8,1.06-1.43,2.35-1.84,3.65-.35,1.12.4,2.36,1.55,2.69,1.15.28,2.35-.39,2.7-1.57h0Z"/>
              <path class="cls-7" d="M375.76,578.98c1.78-1.06,3.44-2.3,4.94-3.76,2.07-1.96-1.09-5.05-3.16-3.09-1.2,1.18-2.53,2.19-4.02,3.09-2.47,1.46-.23,5.22,2.24,3.76h0Z"/>
              <path class="cls-7" d="M373.12,570.72c1.89.73,4.02.45,5.86-.45,1.09-.56,1.38-2.02.8-2.98-.63-1.06-1.95-1.35-3.04-.79-.8.39-1.43.34-2.41,0-1.15-.45-2.47.45-2.76,1.52-.34,1.23.46,2.25,1.55,2.69h0Z"/>
              <path class="cls-7" d="M315.74,537.54c.23,1.35.4,2.7.63,4.04.17,1.18,1.67,1.8,2.76,1.51,1.26-.34,1.72-1.51,1.55-2.69-.23-1.34-.4-2.69-.63-4.04-.17-1.18-1.66-1.8-2.76-1.51-1.26.34-1.72,1.51-1.55,2.69h0Z"/>
              <path class="cls-7" d="M291.44,537.65c.63.73,1.32,1.41,1.95,2.13.8.9,2.3.79,3.16,0,.86-.84.8-2.19,0-3.09-.63-.73-1.32-1.4-1.95-2.13-.8-.9-2.3-.79-3.16,0-.92.84-.8,2.19,0,3.09h0Z"/>
              <path class="cls-7" d="M368.35,532.72c2.58.79,5.23.79,7.87.17,2.75-.73,1.61-4.88-1.21-4.21-1.84.45-3.67.39-5.46-.17-2.76-.84-3.96,3.37-1.2,4.21h0Z"/>
              <path class="cls-7" d="M377.08,522.55c1.2,1.91,2.53,3.76,3.91,5.56.75.96,1.9,1.46,3.04.79.97-.56,1.55-2.02.8-2.98-1.38-1.8-2.7-3.65-3.91-5.56-1.49-2.41-5.34-.22-3.85,2.19h0Z"/>
              <path class="cls-7" d="M385.99,526.6c1.89,2.41,3.79,4.88,5.69,7.3.75.96,1.89,1.46,3.04.79.98-.56,1.55-2.02.8-2.97-1.9-2.41-3.79-4.89-5.69-7.3-.75-.96-1.9-1.46-3.04-.79-.92.56-1.55,2.02-.8,2.98h0Z"/>
              <path class="cls-7" d="M391.84,544.39c2.01-.39,4.02-.56,6.09-.62,2.87-.05,2.87-4.38,0-4.38-2.47,0-4.88.28-7.29.78-2.82.56-1.61,4.78,1.2,4.21h0Z"/>
              <path class="cls-7" d="M392.76,550.74c1.61-.28,3.16-.62,4.77-.89,1.2-.22,1.84-1.63,1.55-2.7-.35-1.24-1.55-1.74-2.76-1.52-1.61.28-3.16.62-4.77.9-1.21.22-1.84,1.63-1.55,2.7.35,1.24,1.55,1.74,2.76,1.51h0Z"/>
              <path class="cls-7" d="M376.28,543.16c.63,1.74,1.32,3.54,1.95,5.28.4,1.12,1.49,1.85,2.76,1.52,1.09-.28,1.95-1.57,1.55-2.7-.63-1.74-1.32-3.54-1.95-5.28-.4-1.12-1.49-1.85-2.76-1.51-1.09.28-1.95,1.57-1.55,2.7h0Z"/>
              <path class="cls-7" d="M398.34,555.06c2.3,1.63,4.48,3.37,6.72,5.05.92.73,2.24.9,3.16,0,.8-.79.98-2.36,0-3.09-2.53-1.96-5.06-3.87-7.64-5.78-.98-.73-2.47-.17-3.04.79-.63,1.12-.17,2.3.8,3.03h0Z"/>
              <path class="cls-7" d="M399.77,563.09c1.84,2.13,3.33,4.44,4.6,6.91,1.32,2.53,5.17.28,3.85-2.19-1.43-2.81-3.27-5.39-5.28-7.81-1.84-2.13-4.94.95-3.16,3.09h0Z"/>
              <path class="cls-7" d="M397.93,570.56c.63,1.91,1.09,3.93,1.26,5.95.23,2.75,4.71,2.81,4.48,0-.23-2.41-.69-4.77-1.44-7.07-.92-2.7-5.22-1.57-4.31,1.12h0Z"/>
              <path class="cls-7" d="M390.23,573.98c.17,2.08.12,4.16-.17,6.23-.18,1.18,1.15,2.19,2.24,2.19,1.32,0,2.07-1.01,2.24-2.19.29-2.08.35-4.15.17-6.23-.23-2.75-4.71-2.81-4.48,0h0Z"/>
              <path class="cls-7" d="M379.78,582.96c1.15,3.2,2.7,6.18,4.71,8.93,1.66,2.25,5.51.11,3.85-2.19-1.78-2.42-3.22-5.05-4.25-7.86-.92-2.64-5.23-1.51-4.31,1.12h0Z"/>
              <path class="cls-7" d="M375.24,591.44c1.09.84,2.12,1.69,3.22,2.47.98.73,2.24.9,3.16,0,.8-.79.98-2.36,0-3.09-1.09-.84-2.12-1.69-3.22-2.47-.98-.73-2.24-.9-3.16,0-.75.79-.92,2.36,0,3.09h0Z"/>
              <path class="cls-7" d="M365.25,602.39c2.24-1.34,4.08-3.09,5.57-5.16.69-.95.17-2.41-.8-2.98-1.09-.62-2.35-.17-3.04.79-1.03,1.46-2.41,2.69-3.96,3.59-2.41,1.46-.17,5.22,2.24,3.76h0Z"/>
              <path class="cls-7" d="M340.66,607.22c2.36-1.57,4.71-3.09,7.01-4.66,2.35-1.57.11-5.33-2.24-3.76-2.35,1.57-4.71,3.09-7.01,4.66-2.35,1.57-.17,5.33,2.24,3.76h0Z"/>
              <path class="cls-7" d="M337.79,595.26c.06,0,.69.28.23.05.29.11.52.22.75.34.23.11.52.28.75.45.06.06.75.5.4.28.98.73,2.24.89,3.16,0,.8-.79.98-2.36,0-3.09-1.26-1.01-2.58-1.74-4.13-2.24-1.15-.39-2.41.45-2.76,1.51-.29,1.24.46,2.3,1.61,2.7h0Z"/>
              <path class="cls-7" d="M364.5,559.5c.92,1.24,1.89,2.53,2.81,3.76.69.95,1.95,1.4,3.04.79.98-.56,1.49-2.02.8-2.98-.92-1.23-1.9-2.53-2.81-3.76-.69-.95-1.95-1.4-3.04-.79-.98.51-1.49,1.97-.8,2.98h0Z"/>
              <path class="cls-7" d="M377.83,564.04c3.05-.56,6.15-.84,9.25-1.01,2.87-.11,2.87-4.49,0-4.38-3.5.17-7.01.56-10.45,1.12-2.81.56-1.61,4.77,1.21,4.27h0Z"/>
              <path class="cls-7" d="M393.51,565.84c-.52-.23.06.05.12.05.23.11.4.22.63.34.23.11.4.22.57.39-.46-.34.17.11.23.22.92.79,2.24.9,3.16,0,.8-.78.92-2.3,0-3.09-1.09-.95-2.24-1.57-3.5-2.13-1.15-.45-2.47.51-2.76,1.52-.4,1.23.4,2.25,1.55,2.7h0Z"/>
              <path class="cls-7" d="M355.02,514.86c.11,3.03.57,6.01,1.38,8.93.75,2.7,5.05,1.57,4.31-1.18-.69-2.58-1.09-5.17-1.2-7.81-.18-2.75-4.65-2.75-4.48.05h0Z"/>
              <path class="cls-7" d="M364.44,511.72c1.49-.17,2.93-.06,4.31.62,1.09.51,2.41.28,3.05-.79.57-.95.29-2.47-.8-2.97-2.07-.95-4.25-1.46-6.55-1.23-1.2.11-2.24.9-2.24,2.19,0,1.12,1.03,2.36,2.24,2.19h0Z"/>
              <path class="cls-7" d="M370.54,515.48c-.17,2.08.46,4.21,1.72,5.84.75.96,1.9,1.46,3.05.79.98-.56,1.55-2.02.8-2.98-.86-1.12-1.26-2.25-1.15-3.65.12-1.18-1.09-2.19-2.24-2.19-1.21,0-2.07,1.01-2.18,2.19h0Z"/>
              <path class="cls-7" d="M375.65,515.98c2.64.73,5.28,1.68,7.75,2.81,2.59,1.18,4.83-2.58,2.24-3.76-2.87-1.29-5.8-2.41-8.85-3.26-2.76-.73-3.91,3.48-1.15,4.21h0Z"/>
              <path class="cls-7" d="M362.03,502.29c2.53,2.25,5.29,4.21,8.27,5.9,2.52,1.4,4.77-2.36,2.24-3.76-2.64-1.46-5.11-3.2-7.35-5.16-2.13-1.96-5.29,1.12-3.16,3.03h0Z"/>
              <path class="cls-7" d="M349.17,508.46c-1.09,1.96-2.41,3.71-4.02,5.28-2.01,2.02,1.15,5.05,3.16,3.09,1.84-1.8,3.45-3.87,4.71-6.18,1.38-2.47-2.47-4.66-3.85-2.19h0Z"/>
              <path class="cls-7" d="M335.21,520.31c1.49.51,3.16.51,4.66.17,1.2-.28,1.89-1.57,1.55-2.7-.35-1.18-1.55-1.8-2.76-1.51,0,0-.75.11-.35.11h-.69s-.75-.11-.35,0c-.29-.06-.63-.17-.92-.22-1.15-.39-2.41.45-2.75,1.51-.29,1.12.46,2.25,1.61,2.64h0Z"/>
              <path class="cls-7" d="M341.3,500.15c.69,2.08,1.38,4.16,2.01,6.18.86,2.64,5.17,1.52,4.31-1.18-.69-2.08-1.38-4.16-2.01-6.17-.92-2.64-5.23-1.52-4.31,1.18h0Z"/>
              <path class="cls-7" d="M334.58,492.01c2.58,1.01,5.23,1.8,7.93,2.3,2.81.5,4.02-3.71,1.21-4.21-2.76-.5-5.34-1.23-7.93-2.3-1.15-.45-2.47.51-2.75,1.51-.35,1.24.4,2.25,1.55,2.7h0Z"/>
              <path class="cls-7" d="M352.38,497.06c1.38,1.51,3.1,2.8,4.88,3.76,2.53,1.35,4.77-2.41,2.24-3.76-1.55-.84-2.82-1.85-4.02-3.09-.8-.9-2.3-.79-3.16,0-.86.89-.8,2.24.06,3.09h0Z"/>
              <path class="cls-7" d="M304.88,548.16c1.61.11,3.16.22,4.77.39,1.21.11,2.24-1.06,2.24-2.19,0-1.24-1.03-2.08-2.24-2.19-1.61-.11-3.16-.22-4.77-.39-1.2-.11-2.24,1.07-2.24,2.19,0,1.23,1.03,2.08,2.24,2.19h0Z"/>
              <path class="cls-7" d="M349.34,573.03c2.58,1.68,5.29,3.03,8.22,4.1,2.7,1.01,3.85-3.2,1.2-4.21-2.53-.96-4.88-2.19-7.12-3.71-2.47-1.51-4.65,2.3-2.3,3.82h0Z"/>
              <path class="cls-7" d="M292.07,593.46c2.3.28,4.48.39,6.78.11,1.21-.17,2.24-.9,2.24-2.19,0-1.06-1.03-2.35-2.24-2.19-1.83.22-3.73.28-5.57.06-1.21-.17-2.41.28-2.76,1.51-.29,1.07.34,2.53,1.55,2.7h0Z"/>
              <path class="cls-7" d="M290.12,573.64c.52,1.18.98,2.36,1.49,3.54.46,1.12,1.44,1.86,2.76,1.52,1.09-.28,2.01-1.57,1.55-2.7-.52-1.18-.97-2.36-1.49-3.54-.46-1.12-1.43-1.85-2.75-1.51-1.09.28-2.01,1.57-1.55,2.69h0Z"/>
              <path class="cls-7" d="M277.88,540.58c.92-1.01,1.9-1.91,2.93-2.75.92-.73.8-2.3,0-3.09-.92-.9-2.24-.73-3.16,0-1.03.84-2.01,1.74-2.93,2.75-.8.9-.92,2.19,0,3.09.86.79,2.35.9,3.16,0h0Z"/>
              <path class="cls-7" d="M280.75,513.01c-.86,1.41-1.49,2.92-1.9,4.49-.29,1.12.35,2.35,1.55,2.69,1.15.34,2.41-.39,2.75-1.51.34-1.24.8-2.36,1.44-3.42,1.49-2.47-2.35-4.66-3.85-2.25h0Z"/>
              <path class="cls-7" d="M254.04,534.4c1.43-.62,2.75-1.35,4.02-2.25.98-.67,1.44-1.91.81-2.97-.58-.96-2.07-1.46-3.04-.79-1.26.9-2.58,1.63-4.02,2.24-1.09.45-1.38,2.08-.8,2.98.69,1.12,1.95,1.29,3.04.79h0Z"/>
              <path class="cls-7" d="M290.4,518.06c1.2.39,2.35.67,3.62.84,1.2.17,2.41-.28,2.76-1.51.29-1.07-.34-2.53-1.55-2.7-1.2-.17-2.41-.45-3.62-.84-1.15-.39-2.41.39-2.76,1.51-.34,1.18.4,2.3,1.55,2.7h0Z"/>
              <path class="cls-7" d="M302.58,529.4c.69-.67,1.37-1.29,2.07-1.97.86-.84.86-2.25,0-3.09-.86-.84-2.3-.84-3.16,0-.69.67-1.38,1.29-2.07,1.96-.86.84-.86,2.25,0,3.09.86.84,2.3.78,3.16,0h0Z"/>
              <path class="cls-7" d="M327.8,531.48c1.32,1.74,2.87,3.25,4.77,4.43,1.03.62,2.47.22,3.04-.79.63-1.06.23-2.36-.81-2.97-1.15-.73-2.35-1.8-3.16-2.86-.69-.96-1.95-1.41-3.04-.79-.98.56-1.49,2.02-.8,2.97h0Z"/>
              <path class="cls-7" d="M339.98,532.77c.69-.11,1.89-.11,2.81-.05,1.21.11,2.24-1.07,2.24-2.19,0-1.29-1.03-2.08-2.24-2.19-1.32-.11-2.64,0-4.02.22-1.21.22-1.84,1.63-1.55,2.7.34,1.24,1.55,1.68,2.76,1.51h0Z"/>
              <path class="cls-7" d="M328.31,520.42c.57.96,1.15,1.91,1.72,2.92s2.01,1.41,3.04.79c1.03-.61,1.38-1.96.8-2.97-.57-.96-1.15-1.91-1.72-2.92-.57-1.01-2.01-1.4-3.04-.79-1.03.56-1.38,1.91-.8,2.98h0Z"/>
              <path class="cls-7" d="M321.48,508.97c1.32.62,1.84,1.01,2.82,2.08.8.9,2.3.84,3.16,0,.86-.84.8-2.19,0-3.09-1.03-1.12-2.3-2.08-3.73-2.75-1.09-.5-2.41-.28-3.05.79-.58.96-.29,2.47.8,2.98h0Z"/>
              <path class="cls-7" d="M360.2,527.38c.12,1.57.29,3.2.52,4.77.17,1.18,1.66,1.8,2.76,1.51,1.26-.34,1.72-1.51,1.55-2.7-.17-1.18-.29-2.41-.35-3.59-.05-1.18-.97-2.19-2.24-2.19s-2.35,1.01-2.24,2.19h0Z"/>
              <path class="cls-7" d="M357.84,505.94c-.35.79-.69,1.51-1.03,2.3-.52,1.07-.34,2.36.8,2.97.98.56,2.53.28,3.05-.79.34-.78.69-1.51,1.03-2.3.52-1.07.35-2.36-.8-2.98-.92-.51-2.53-.28-3.05.79h0Z"/>
              <path class="cls-7" d="M362.49,566.51c.52.96,1.03,1.91,1.55,2.87.58,1.07,2.07,1.34,3.04.79,1.09-.62,1.38-1.91.8-2.98-.52-.95-1.03-1.91-1.55-2.86-.58-1.06-2.07-1.35-3.05-.79-1.09.62-1.38,1.91-.8,2.97h0Z"/>
              <path class="cls-7" d="M312.92,596.72c.69,1.74,1.26,3.54,1.72,5.33.63,2.75,4.94,1.57,4.31-1.18-.46-1.8-.98-3.59-1.72-5.33-.46-1.12-1.49-1.85-2.76-1.51-1.09.34-2.01,1.57-1.55,2.69h0Z"/>
              <path class="cls-7" d="M282.07,586.84c.81-1.29,1.61-2.58,2.41-3.93,1.49-2.41-2.35-4.61-3.85-2.19-.8,1.29-1.61,2.58-2.41,3.93-1.49,2.41,2.35,4.6,3.85,2.19h0Z"/>
              <path class="cls-7" d="M269.55,580.32c.17-.11.35-.17.46-.28.11-.06.23-.11.34-.17q-.23.11,0,0c.46-.17.98-.28,1.44-.34,1.2-.17,1.83-1.63,1.55-2.7-.35-1.23-1.55-1.68-2.76-1.51-1.15.17-2.3.62-3.33,1.18-1.03.62-1.44,1.97-.8,2.98.69,1.07,2.07,1.46,3.1.84h0Z"/>
              <path class="cls-7" d="M368.24,544.28c1.61-.28,3.27-.56,4.88-.84,1.2-.22,1.84-1.63,1.55-2.7-.34-1.23-1.55-1.74-2.76-1.51-1.6.28-3.27.56-4.88.84-1.2.22-1.83,1.63-1.55,2.69.35,1.23,1.55,1.74,2.76,1.52h0Z"/>
              <path class="cls-7" d="M383.57,580.83c.8,1.63,1.95,3.14,3.33,4.38.86.79,2.3.84,3.16,0,.86-.84.86-2.25,0-3.09-1.15-1.07-1.95-2.08-2.64-3.48-.52-1.07-2.07-1.35-3.04-.79-1.15.62-1.38,1.91-.8,2.98h0Z"/>
              <path class="cls-7" d="M269.47,586.42c2.28-.38,4.41-.9,6.53-1.81,1.11-.51,1.9-1.5,1.53-2.74-.3-1.02-1.66-1.96-2.77-1.46-1.7.74-3.5,1.33-5.32,1.63-1.21.18-2.24.95-2.22,2.23.02,1.1,1.05,2.32,2.25,2.15h0Z"/>
            </g>
          </g>
        </g>
        <g>
          <g class="cls-11">
            <polygon class="cls-2" points="675.82 622.11 686.62 617.79 694.03 623.51 707.07 620.99 710.46 627.5 724.47 627.05 723.5 633.79 737.11 635.41 731.89 641.65 743.77 645.24 734.75 650.4 743.77 655.57 731.89 659.16 737.11 665.39 723.5 667.02 724.47 673.76 710.46 673.31 707.07 679.82 694.03 677.3 686.62 683.02 675.82 678.7 665.08 683.02 657.61 677.3 644.63 679.82 641.18 673.31 627.23 673.76 628.2 667.02 614.53 665.39 619.82 659.16 607.92 655.57 616.94 650.4 607.92 645.24 619.82 641.65 614.53 635.41 628.2 633.79 627.23 627.05 641.18 627.5 644.63 620.99 657.61 623.51 665.08 617.79 675.82 622.11"/>
          </g>
          <polygon class="cls-8" points="577.94 559.73 607.92 645.24 619.82 641.65 590.92 567.2 577.94 559.73"/>
          <polygon class="cls-8" points="587.53 545.59 614.53 635.41 628.2 633.79 595.12 554.62 587.53 545.59"/>
          <polygon class="cls-8" points="577.94 574.67 607.92 655.57 619.82 659.16 595.12 579.78 577.94 574.67"/>
          <polygon class="cls-8" points="660.31 614.19 665.08 683.02 675.82 678.7 675.82 607.96 660.31 614.19"/>
          <polygon class="cls-6" points="649.63 605.94 657.61 677.3 665.08 683.02 660.31 614.19 649.63 605.94"/>
          <polygon class="cls-8" points="630.85 609.59 649.63 605.94 657.61 677.3 644.63 679.82 630.85 609.59"/>
          <polygon class="cls-6" points="625.96 600.16 630.85 609.59 644.63 679.82 641.18 673.31 625.96 600.16"/>
          <polygon class="cls-6" points="587.53 588.82 614.53 665.39 628.2 667.02 607.18 591.17 587.53 588.82"/>
          <polygon class="cls-8" points="605.74 600.83 627.23 673.76 641.18 673.31 625.96 600.16 605.74 600.83"/>
          <polygon class="cls-8" points="773.76 559.73 743.77 645.24 731.89 641.65 760.72 567.2 773.76 559.73"/>
          <polygon class="cls-8" points="764.17 545.59 737.11 635.41 723.5 633.79 756.58 554.62 764.17 545.59"/>
          <polygon class="cls-6" points="773.76 574.67 743.77 655.57 731.89 659.16 756.58 579.78 773.76 574.67"/>
          <polygon class="cls-6" points="691.33 614.19 686.62 683.02 675.82 678.7 675.82 607.96 691.33 614.19"/>
          <polygon class="cls-8" points="702.07 605.94 694.03 677.3 686.62 683.02 691.33 614.19 702.07 605.94"/>
          <polygon class="cls-6" points="720.86 609.59 702.07 605.94 694.03 677.3 707.07 679.82 720.86 609.59"/>
          <polygon class="cls-8" points="725.74 600.16 720.86 609.59 707.07 679.82 710.46 673.31 725.74 600.16"/>
          <polygon class="cls-8" points="764.17 588.82 737.11 665.39 723.5 667.02 744.52 591.17 764.17 588.82"/>
          <polygon class="cls-6" points="745.96 600.83 724.47 673.76 710.46 673.31 725.74 600.16 745.96 600.83"/>
          <polygon class="cls-1" points="675.82 526.44 691.33 520.21 702.07 528.41 720.86 524.81 725.74 534.24 745.96 533.52 744.52 543.23 764.17 545.59 756.58 554.62 773.76 559.73 760.72 567.2 773.76 574.67 756.58 579.78 764.17 588.82 744.52 591.17 745.96 600.83 725.74 600.16 720.86 609.59 702.07 605.94 691.33 614.19 675.82 607.96 660.31 614.19 649.63 605.94 630.85 609.59 625.96 600.16 605.74 600.83 607.18 591.17 587.53 588.82 595.12 579.78 577.94 574.67 590.92 567.2 577.94 559.73 595.12 554.62 587.53 545.59 607.18 543.23 605.74 533.52 625.96 534.24 630.85 524.81 649.63 528.41 660.31 520.21 675.82 526.44"/>
          <path class="cls-9" d="M756.58,554.62h0c-.92-3.54-2.07-7.02-3.44-10.33-12.29-29.93-42.28-51.04-77.32-51.04s-64.96,21.11-77.32,51.04c-1.38,3.31-2.52,6.79-3.44,10.33h0c-1.67,6.4-2.53,13.14-2.53,20.05,0,1.46.06,2.97.12,4.43.06,1.12.17,2.25.23,3.31.23,2.41.57,4.83,1.03,7.19l13.21,1.57-1.44,9.71,20.22-.67,4.88,9.43,18.78-3.65,10.74,8.25,15.51-6.23,15.51,6.23,10.74-8.25,18.79,3.65,4.88-9.43,20.22.67-1.44-9.71,13.21-1.57c.46-2.35.8-4.77,1.03-7.19.12-1.12.17-2.19.23-3.31.06-1.46.12-2.92.12-4.43,0-6.96-.86-13.64-2.53-20.05Z"/>
          <g>
            <path class="cls-3" d="M638.31,537.95c4.25-4.04,9.19-7.24,14.71-9.49,2.64-1.06,1.49-5.28-1.21-4.21-6.26,2.53-11.77,6.01-16.66,10.61-2.07,1.97,1.09,5.06,3.16,3.09h0Z"/>
            <path class="cls-3" d="M655.26,547.89c3.04-1.68,6.26-2.64,9.71-2.81,2.87-.17,2.87-4.49,0-4.38-4.25.22-8.27,1.35-12.01,3.42-2.41,1.35-.17,5.16,2.3,3.76h0Z"/>
            <path class="cls-3" d="M670.13,535.82c2.18.34,4.02,1.29,5.57,2.86,1.95,2.08,5.11-1.01,3.16-3.09-1.95-2.13-4.65-3.54-7.53-3.99-1.2-.17-2.41.28-2.75,1.51-.29,1.06.35,2.52,1.55,2.7h0Z"/>
            <path class="cls-3" d="M656.81,557.99c3.1,1.57,5.98,3.42,8.62,5.67,2.18,1.85,5.34-1.24,3.16-3.09-2.93-2.47-6.09-4.61-9.54-6.35-2.53-1.29-4.77,2.47-2.24,3.76h0Z"/>
            <path class="cls-3" d="M644.17,559.06c2.07,1.51,4.19,2.97,6.26,4.49.98.73,2.47.17,3.05-.79.69-1.12.17-2.3-.8-2.97-2.07-1.51-4.19-2.98-6.26-4.49-.98-.73-2.47-.17-3.04.79-.63,1.12-.17,2.3.8,2.98h0Z"/>
            <path class="cls-3" d="M631.31,559.68c1.95,1.96,3.44,4.16,4.71,6.62,1.26,2.53,5.11.34,3.85-2.19-1.38-2.75-3.22-5.28-5.4-7.47-2.01-2.08-5.17,1.01-3.16,3.03h0Z"/>
            <path class="cls-3" d="M620.05,558.72c3.56-2.75,7.24-5.28,11.14-7.58,2.47-1.46.23-5.22-2.24-3.76-4.19,2.52-8.16,5.28-12,8.31-2.35,1.68.86,4.77,3.1,3.03h0Z"/>
            <path class="cls-3" d="M618.5,567.65c1.32,2.47,2.64,4.94,3.96,7.41,1.32,2.47,5.17.28,3.85-2.19-1.32-2.47-2.64-4.94-3.96-7.41-1.32-2.47-5.17-.28-3.85,2.19h0Z"/>
            <path class="cls-3" d="M620.91,543.56c2.53-1.68,5.11-3.31,7.64-5,2.35-1.57.17-5.33-2.24-3.76-2.53,1.68-5.11,3.31-7.64,5-2.41,1.57-.17,5.33,2.24,3.76h0Z"/>
            <path class="cls-3" d="M636.3,546.93c2.01-.28,3.9-1.07,5.63-2.19.98-.67,1.44-1.91.8-2.97-.57-.95-2.07-1.46-3.04-.79-1.38.96-2.87,1.46-4.54,1.74-1.21.17-1.84,1.63-1.55,2.69.29,1.24,1.49,1.74,2.7,1.52h0Z"/>
            <path class="cls-3" d="M640.15,517.85c4.65-.22,9.37-.51,14.02-.73,2.87-.17,2.87-4.49,0-4.38-4.65.22-9.36.5-14.02.73-2.81.17-2.87,4.49,0,4.38h0Z"/>
            <path class="cls-3" d="M659.39,504.99c3.39,1.91,6.78,3.76,10.17,5.67,2.53,1.41,4.77-2.35,2.24-3.76-3.39-1.91-6.78-3.76-10.17-5.67-2.47-1.4-4.77,2.36-2.24,3.76h0Z"/>
            <path class="cls-3" d="M627.34,524.03c3.39-5.28,7.12-10.28,11.26-15.05,1.84-2.13-1.32-5.22-3.16-3.09-4.36,5.06-8.33,10.33-11.95,15.95-1.55,2.41,2.3,4.6,3.85,2.19h0Z"/>
            <path class="cls-3" d="M649.63,504.99c2.93-1.91,5.92-3.82,8.85-5.73,2.41-1.57.17-5.33-2.24-3.76-2.93,1.91-5.92,3.82-8.84,5.73-2.41,1.57-.17,5.33,2.24,3.76h0Z"/>
            <path class="cls-3" d="M618.15,521.44c3.04-2.75,6.55-5,10.39-6.51,2.64-1.07,1.49-5.28-1.2-4.21-4.6,1.85-8.73,4.32-12.35,7.63-2.07,1.91,1.09,5,3.16,3.09h0Z"/>
            <path class="cls-3" d="M604.02,535.42c2.87-4.04,7.01-6.85,11.83-8.14,2.75-.73,1.61-4.94-1.21-4.21-5.97,1.63-10.97,5.16-14.47,10.16-1.67,2.3,2.18,4.44,3.85,2.19h0Z"/>
            <path class="cls-3" d="M661.92,534.3c2.3-1.91,4.54-3.82,6.84-5.78,2.18-1.85-.97-4.88-3.16-3.09-2.3,1.91-4.54,3.82-6.84,5.78-2.18,1.85.98,4.88,3.16,3.09h0Z"/>
            <path class="cls-3" d="M649.46,539.24c1.55.67,3.04.84,4.71.62,1.2-.17,1.83-1.63,1.55-2.69-.35-1.24-1.55-1.68-2.76-1.52.52-.05-.17,0-.23,0-.23,0-.4,0-.63-.05.52.05-.11-.06-.23-.06-.06,0-.69-.22-.23-.05-1.09-.51-2.41-.34-3.05.79-.52.9-.29,2.47.86,2.97h0Z"/>
            <path class="cls-3" d="M636.82,529.19c2.01-1.12,4.19-1.91,6.55-2.19,1.2-.17,2.24-.9,2.24-2.19,0-1.07-1.03-2.3-2.24-2.19-3.16.39-6.03,1.23-8.79,2.81-2.53,1.4-.29,5.17,2.24,3.76h0Z"/>
            <path class="cls-3" d="M609.71,538.57c-.17,3.48-.34,6.91-.52,10.38-.11,2.81,4.31,2.81,4.48,0,.17-3.48.35-6.9.52-10.38.12-2.81-4.31-2.81-4.48,0h0Z"/>
            <path class="cls-3" d="M600.98,545.53c1.37,2.75,2.75,5.45,4.08,8.2,1.26,2.53,5.11.34,3.85-2.19-1.38-2.75-2.76-5.45-4.08-8.2-1.26-2.53-5.11-.34-3.85,2.19h0Z"/>
            <path class="cls-3" d="M596.27,562.6c2.64,3.99,5.46,7.86,8.5,11.62,1.78,2.19,4.88-.9,3.16-3.09-2.75-3.48-5.34-7.02-7.81-10.73-1.55-2.35-5.46-.17-3.85,2.19h0Z"/>
            <path class="cls-3" d="M609.59,585.17c3.96-2.08,7.93-4.15,11.89-6.23,2.53-1.35.29-5.11-2.24-3.76-3.96,2.08-7.93,4.16-11.89,6.23-2.53,1.35-.29,5.11,2.24,3.76h0Z"/>
            <path class="cls-3" d="M610.05,560.97c.23,2.08.63,4.04,1.43,5.95.46,1.12,1.49,1.85,2.76,1.51,1.09-.28,2.01-1.57,1.55-2.7-.63-1.51-1.15-3.14-1.26-4.77-.12-1.18-.92-2.19-2.24-2.19-1.15.06-2.35,1.01-2.24,2.19h0Z"/>
            <path class="cls-3" d="M633.72,574.16c.86,1.51,2.01,2.69,3.39,3.7.98.73,2.47.17,3.04-.79.69-1.12.17-2.25-.8-2.97.4.28-.23-.22-.29-.28-.23-.22-.46-.45-.69-.67-.18-.17-.18-.22,0,0-.06-.11-.18-.22-.23-.34-.17-.28-.35-.56-.52-.84-.57-1.07-2.01-1.35-3.04-.79-1.15.62-1.43,1.91-.86,2.98h0Z"/>
            <path class="cls-3" d="M648.71,572.2c.23,2.3.69,4.61,1.43,6.79.92,2.64,5.23,1.51,4.31-1.18-.63-1.85-1.09-3.71-1.26-5.62-.12-1.18-.92-2.19-2.24-2.19-1.15,0-2.35,1.01-2.24,2.19h0Z"/>
            <path class="cls-3" d="M649.57,590.72c3.73-3.31,8.1-5.45,13.04-6.45,2.81-.56,1.61-4.77-1.21-4.21-5.69,1.18-10.74,3.76-14.99,7.58-2.12,1.91,1.09,5,3.16,3.09h0Z"/>
            <path class="cls-3" d="M658.02,595.5c2.12-.89,4.08-2.24,5.74-3.82,2.07-1.96-1.09-5.05-3.16-3.09-1.43,1.34-3.04,2.36-4.83,3.14-1.09.51-1.38,2.02-.81,2.98.63,1.12,1.9,1.29,3.05.78h0Z"/>
            <path class="cls-3" d="M640.15,583.15c-1.03,1.63-2.01,3.31-3.04,4.94-1.49,2.41,2.35,4.61,3.85,2.19,1.03-1.63,2.01-3.31,3.04-4.94,1.49-2.41-2.35-4.61-3.85-2.19h0Z"/>
            <path class="cls-3" d="M662.9,572.98c1.55,1.8,3.16,3.59,4.71,5.39.8.9,2.36.79,3.16,0,.92-.9.8-2.19,0-3.09-1.55-1.79-3.16-3.59-4.71-5.39-.8-.9-2.35-.79-3.16,0-.92.9-.75,2.19,0,3.09h0Z"/>
            <path class="cls-3" d="M667.38,591.57c.98,2.19,1.95,4.44,2.99,6.62.46,1.07,2.07,1.35,3.04.79,1.15-.67,1.26-1.91.8-2.97-.97-2.19-1.95-4.44-2.99-6.62-.46-1.07-2.07-1.35-3.04-.79-1.15.62-1.32,1.85-.8,2.97h0Z"/>
            <path class="cls-3" d="M660.66,601.22c.06,1.18-.06,2.36-.57,3.48-.52,1.06-.34,2.35.8,2.97.98.56,2.59.28,3.05-.79.8-1.8,1.26-3.65,1.2-5.67-.06-1.18-.98-2.19-2.24-2.19-1.21.05-2.3,1.01-2.24,2.19h0Z"/>
            <path class="cls-3" d="M646.53,606c2.07-1.29,4.31-2.19,6.72-2.7,2.81-.56,1.61-4.77-1.21-4.21-2.75.56-5.4,1.63-7.81,3.15-2.35,1.46-.11,5.28,2.3,3.76h0Z"/>
            <path class="cls-3" d="M637.11,605.6c1.03-1.91,2.12-3.82,3.16-5.67,1.38-2.47-2.47-4.66-3.85-2.19-1.03,1.91-2.13,3.82-3.16,5.67-1.38,2.47,2.47,4.66,3.85,2.19h0Z"/>
            <path class="cls-3" d="M631.71,600.66c1.61-1.63,1.84-3.87.92-5.9-.52-1.06-2.07-1.35-3.04-.79-1.15.62-1.32,1.91-.8,2.97-.23-.45,0,.11,0,.17q-.06-.28-.06,0c0,.28,0,.22,0,0,0,.05-.23.62,0,.17-.05.11-.11.22-.17.34q.17-.17,0,0c-.86.84-.86,2.25,0,3.09.8.73,2.3.79,3.16-.05h0Z"/>
            <path class="cls-3" d="M616.77,598.81c2.01-1.07,3.96-2.19,5.97-3.26,2.53-1.35.29-5.11-2.24-3.76-2.01,1.07-3.96,2.19-5.98,3.25-2.52,1.4-.29,5.17,2.24,3.76h0Z"/>
            <path class="cls-3" d="M615.97,591.57c.12-.28.29-.56.4-.84.52-1.06.29-2.36-.8-2.97-.98-.56-2.53-.28-3.04.79-.12.28-.29.56-.4.84-.52,1.07-.29,2.36.8,2.97.98.56,2.53.28,3.05-.79h0Z"/>
            <path class="cls-3" d="M594.95,576.07c.46,3.31,1.66,6.46,3.44,9.32,1.49,2.42,5.34.22,3.85-2.19-1.61-2.58-2.59-5.28-3.05-8.25-.17-1.18-1.66-1.79-2.75-1.51-1.21.34-1.67,1.46-1.49,2.64h0Z"/>
            <path class="cls-3" d="M602.87,576.74c-.12,2.08,1.38,3.93,3.39,4.55,1.15.34,2.41-.39,2.76-1.51.35-1.18-.4-2.3-1.55-2.7-.23-.05-.17-.05.11.06-.05-.06-.17-.11-.23-.17.23.22.29.22.12.06-.12-.11-.34-.45,0,0-.05-.06-.12-.17-.12-.22.12.34.18.34.06.11,0-.11-.06-.17-.06-.28.12.56.06.22.06,0,.05-1.18-1.09-2.19-2.24-2.19-1.32.11-2.24,1.12-2.3,2.3h0Z"/>
            <path class="cls-3" d="M655.2,567.37c.4,1.68.86,3.31,1.26,5,.69,2.75,5,1.57,4.31-1.18-.4-1.68-.86-3.31-1.26-5-.69-2.69-5-1.57-4.31,1.18h0Z"/>
            <path class="cls-3" d="M667.84,554.57c1.26,2.86,3.16,5.39,5.52,7.41,2.18,1.85,5.34-1.24,3.16-3.09-2.13-1.8-3.73-3.93-4.83-6.51-.46-1.07-2.12-1.35-3.04-.79-1.15.67-1.26,1.91-.81,2.97h0Z"/>
            <path class="cls-3" d="M674.44,553.84c1.03,1.06,1.84,2.08,2.64,3.25.69,1.01,1.95,1.4,3.04.79,1.03-.56,1.49-1.96.8-2.98-.97-1.46-2.12-2.86-3.33-4.16-.8-.9-2.3-.84-3.16,0-.92.9-.86,2.25,0,3.09h0Z"/>
            <path class="cls-3" d="M689.32,569.78c2.35-2.36,4.94-4.38,7.87-6.01,2.47-1.4.23-5.16-2.24-3.76-3.22,1.8-6.21,4.04-8.79,6.68-2.01,2.02,1.15,5.11,3.16,3.09h0Z"/>
            <path class="cls-3" d="M694.89,556.48c2.24-.45,4.54-.9,6.78-1.41,2.81-.56,1.61-4.77-1.21-4.21-2.24.45-4.54.9-6.78,1.41-2.76.62-1.55,4.77,1.21,4.21h0Z"/>
            <path class="cls-3" d="M698.74,567.82c1.78,1.01,3.22,2.41,4.31,4.21,1.49,2.41,5.34.22,3.85-2.19-1.44-2.36-3.45-4.38-5.92-5.78-2.53-1.4-4.77,2.36-2.24,3.76h0Z"/>
            <path class="cls-3" d="M709.37,559.57c.92,1.85,2.18,3.59,3.73,5,2.07,1.96,5.23-1.12,3.16-3.09-1.26-1.24-2.24-2.58-3.04-4.16-.52-1.06-2.07-1.35-3.04-.79-1.09.73-1.32,1.97-.8,3.03h0Z"/>
            <path class="cls-3" d="M721.83,551.59c.92,3.54,2.7,6.68,5.11,9.49,1.9,2.13,5-.95,3.16-3.09-1.95-2.19-3.21-4.71-3.96-7.52-.75-2.75-5.05-1.57-4.31,1.12h0Z"/>
            <path class="cls-3" d="M717.87,576.13c-2.3,2.36-4.54,4.66-6.84,7.02-1.95,2.02,1.15,5.11,3.16,3.09,2.3-2.36,4.54-4.66,6.84-7.02,1.95-2.08-1.15-5.16-3.16-3.09h0Z"/>
            <path class="cls-3" d="M700.29,581.91c.05.28.05.34.05.17v.51c0-.17-.12.5-.17.62-.06.22-.4.62-.69.79-1.03.67-1.44,1.91-.8,2.98.57,1.01,2.01,1.46,3.04.79,2.35-1.51,3.56-4.27,2.81-7.02-.63-2.75-4.94-1.57-4.25,1.18h0Z"/>
            <path class="cls-3" d="M686.79,588.65c1.38.79,2.36,1.8,3.1,3.31.52,1.07,2.07,1.35,3.04.79,1.09-.62,1.32-1.91.8-2.98-1.03-2.02-2.7-3.71-4.71-4.83-2.47-1.46-4.77,2.3-2.24,3.71h0Z"/>
            <path class="cls-3" d="M683.4,602.8c1.72,1.51,3.79,2.64,6.09,3.09,1.21.22,2.41-.34,2.76-1.51.29-1.07-.35-2.42-1.55-2.7-1.55-.34-2.93-.96-4.14-1.97-2.12-1.85-5.28,1.18-3.16,3.09h0Z"/>
            <path class="cls-3" d="M680.59,581.57c2.12-.96,4.25-1.91,6.38-2.86,1.09-.51,1.38-2.02.8-2.98-.63-1.12-1.95-1.29-3.04-.79-2.13.96-4.25,1.91-6.38,2.87-1.09.5-1.38,2.02-.81,2.97.63,1.12,1.95,1.29,3.04.79h0Z"/>
            <path class="cls-3" d="M690.58,541.77c.86.96,1.72,1.91,2.53,2.92.8.9,2.35.79,3.16,0,.92-.9.8-2.19,0-3.09-.86-.96-1.72-1.91-2.53-2.92-.8-.9-2.35-.79-3.16,0-.92.9-.8,2.19,0,3.09h0Z"/>
            <path class="cls-3" d="M698.11,525.43c1.09,2.58,2.64,4.88,4.82,6.79,2.13,1.85,5.34-1.24,3.16-3.09-1.55-1.35-2.87-2.97-3.68-4.83-.46-1.12-1.43-1.85-2.76-1.51-1.03.28-2.01,1.57-1.55,2.64h0Z"/>
            <path class="cls-3" d="M715.17,522.96c.58,2.19,1.09,4.44,1.66,6.62.69,2.75,5,1.57,4.31-1.18-.58-2.19-1.09-4.44-1.66-6.63-.69-2.75-5-1.57-4.31,1.18h0Z"/>
            <path class="cls-3" d="M712.3,545.59c3.68-.96,7.35-1.91,11.08-2.81,2.76-.73,1.61-4.94-1.2-4.21-3.68.95-7.35,1.91-11.08,2.81-2.76.73-1.55,4.88,1.2,4.21h0Z"/>
            <path class="cls-3" d="M732.34,541.94c1.78.45,3.33,1.35,4.65,2.64,2.01,1.96,5.17-1.07,3.16-3.09-1.84-1.8-4.08-3.09-6.61-3.76-2.76-.67-3.96,3.48-1.2,4.21h0Z"/>
            <path class="cls-3" d="M736.54,559.57c1.83,1.4,3.79,2.7,5.97,3.71,1.09.5,2.41.28,3.04-.79.57-.96.29-2.47-.8-2.98-1.78-.84-3.5-1.79-5.05-2.97-.98-.73-2.24-.9-3.16,0-.8.73-.98,2.3,0,3.03h0Z"/>
            <path class="cls-3" d="M739.06,570.68c-2.01,1.51-3.62,3.37-5,5.39-1.55,2.36,2.3,4.55,3.85,2.19,1.15-1.74,2.64-3.26,4.31-4.55.98-.73.81-2.3,0-3.09-.92-.84-2.18-.67-3.16.06h0Z"/>
            <path class="cls-3" d="M724.24,587.41c.58.84,1.15,1.68,1.72,2.47.69,1.01,1.95,1.4,3.04.79.97-.56,1.49-1.96.8-2.97-.57-.84-1.15-1.68-1.72-2.47-.69-1.01-1.95-1.4-3.04-.79-1.03.56-1.49,1.96-.81,2.97h0Z"/>
            <path class="cls-3" d="M688.17,532.06c1.26-.62,2.59-.84,4.02-.84,2.87.06,2.87-4.32,0-4.38-2.18-.06-4.31.5-6.26,1.46-1.09.5-1.38,2.02-.8,2.97.63,1.06,1.95,1.35,3.04.79h0Z"/>
            <path class="cls-3" d="M684.73,519.87c2.81-.95,5.69-1.85,8.5-2.8,2.7-.9,1.55-5.11-1.21-4.21-2.81.95-5.69,1.85-8.5,2.8-2.7.9-1.55,5.11,1.21,4.21h0Z"/>
            <path class="cls-3" d="M682.37,500.39c1.9,1.85,3.85,3.7,5.75,5.56,2.07,1.96,5.23-1.12,3.16-3.09-1.89-1.85-3.85-3.71-5.74-5.56-2.01-1.97-5.17,1.12-3.16,3.09h0Z"/>
            <path class="cls-3" d="M699.54,503.2c1.61,2.08,3.16,4.1,4.77,6.17.75.95,1.9,1.46,3.04.79.98-.56,1.55-2.02.8-2.97-1.6-2.08-3.16-4.1-4.77-6.18-.75-.95-1.9-1.46-3.04-.79-.97.51-1.55,2.02-.8,2.98h0Z"/>
            <path class="cls-3" d="M616.94,532.96c2.3.45,4.6.45,6.89-.11,2.82-.67,1.61-4.88-1.2-4.21-1.49.34-3.04.39-4.54.11-1.2-.23-2.41.33-2.76,1.51-.23,1.07.4,2.41,1.61,2.7h0Z"/>
            <path class="cls-3" d="M594.83,548.56c1.2,2.97,2.76,5.67,4.77,8.14.75.95,2.35.79,3.16,0,.92-.9.75-2.13,0-3.09-1.49-1.91-2.7-4.04-3.62-6.23-.46-1.12-1.49-1.86-2.76-1.52-1.09.28-2.01,1.57-1.55,2.7h0Z"/>
            <path class="cls-3" d="M603.56,560.07c-.17,1.46.23,2.92.92,4.21.58,1.01,2.01,1.34,3.04.78,1.09-.62,1.38-1.96.8-2.97,0,0-.29-.62-.17-.28-.06-.22-.12-.39-.17-.62-.17-.62,0,.39-.05-.28,0-.28,0-.56.05-.84.17-1.18-1.15-2.19-2.24-2.19-1.32,0-2.07,1.01-2.18,2.19h0Z"/>
            <path class="cls-3" d="M619.47,551.31c.92-.9,1.95-1.57,3.1-1.96,1.15-.39,1.9-1.46,1.55-2.7-.29-1.06-1.61-1.91-2.76-1.51-1.95.67-3.62,1.68-5.11,3.09-1.95,2.02,1.21,5.11,3.22,3.09h0Z"/>
            <path class="cls-3" d="M624.81,559.62c.81,1.85,1.78,3.59,2.87,5.28,1.55,2.36,5.4.17,3.85-2.19-1.09-1.68-2.07-3.43-2.87-5.28-.52-1.06-2.07-1.35-3.04-.79-1.09.62-1.26,1.85-.81,2.98h0Z"/>
            <path class="cls-3" d="M638.54,553.78c3.16-.28,6.38-.56,9.54-.84,2.81-.28,2.87-4.61,0-4.38-3.16.28-6.38.56-9.54.84-2.81.22-2.87,4.6,0,4.38h0Z"/>
            <path class="cls-3" d="M627.69,529.42c.46.62.86,1.23,1.32,1.85.69.95,1.95,1.4,3.04.79.98-.56,1.49-2.02.8-2.98-.46-.62-.86-1.23-1.32-1.85-.69-.95-1.95-1.4-3.04-.79-.98.56-1.49,1.97-.8,2.98h0Z"/>
            <path class="cls-3" d="M654.8,523.24c2.99-.34,5.97-.73,8.96-1.06,2.81-.34,2.87-4.72,0-4.38-2.99.34-5.97.73-8.96,1.06-2.81.39-2.81,4.72,0,4.38h0Z"/>
            <path class="cls-3" d="M660.89,514.26c1.03.84,2.13,1.68,3.16,2.53.92.73,2.24.9,3.16,0,.8-.79.92-2.3,0-3.09-1.03-.84-2.13-1.68-3.16-2.53-.92-.73-2.24-.9-3.16,0-.81.79-.92,2.36,0,3.09h0Z"/>
            <path class="cls-3" d="M671.05,525.04c1.55,2.25,3.62,4.1,6.15,5.28,1.09.51,2.41.34,3.04-.79.57-.95.29-2.47-.8-2.98-1.84-.84-3.39-2.02-4.54-3.7-1.55-2.36-5.4-.17-3.85,2.19h0Z"/>
            <path class="cls-3" d="M672.43,518.75c1.21.84,2.35,1.63,3.56,2.47.98.67,2.47.17,3.05-.79.63-1.07.17-2.3-.8-2.98-1.21-.84-2.35-1.63-3.56-2.47-.98-.67-2.47-.17-3.04.79-.63,1.07-.17,2.25.8,2.98h0Z"/>
            <path class="cls-3" d="M679.67,511.4c2.76.22,5.52.45,8.27.67,2.87.22,2.87-4.1,0-4.38-2.75-.22-5.51-.45-8.27-.67-2.87-.22-2.87,4.16,0,4.38h0Z"/>
            <path class="cls-3" d="M668.99,500.84c1.95,1.29,4.02,2.3,6.2,3.2,1.15.45,2.47-.51,2.76-1.51.34-1.24-.46-2.25-1.55-2.7-1.78-.73-3.5-1.68-5.11-2.75-2.41-1.52-4.65,2.24-2.3,3.76h0Z"/>
            <path class="cls-3" d="M675.99,497.42c1.26-.56,2.59-.96,3.97-1.24,1.2-.28,1.89-1.57,1.55-2.7-.35-1.18-1.55-1.8-2.76-1.51-1.72.39-3.39.95-5.05,1.68-1.09.51-1.38,2.02-.8,2.98.69,1.12,1.95,1.29,3.1.79h0Z"/>
            <path class="cls-3" d="M665.14,497.75c1.78-.84,3.62-1.69,5.4-2.53,1.09-.5,1.38-2.02.8-2.97-.63-1.07-1.95-1.29-3.04-.79-1.78.84-3.62,1.68-5.4,2.52-1.09.51-1.38,2.02-.8,2.98.69,1.07,1.95,1.29,3.04.79h0Z"/>
            <path class="cls-3" d="M643.14,497.81c-2.76,2.64-3.1,6.35-3.16,9.94-.05,2.8,4.42,2.8,4.48,0,.06-2.36,0-5.11,1.84-6.85,2.07-1.96-1.09-5.05-3.16-3.09h0Z"/>
            <path class="cls-3" d="M648.42,510.55c1.72.11,3.39.22,5.11.39,1.21.11,2.24-1.07,2.24-2.19,0-1.23-1.03-2.08-2.24-2.19-1.72-.11-3.39-.22-5.11-.39-1.2-.11-2.24,1.07-2.24,2.19.06,1.24,1.03,2.08,2.24,2.19h0Z"/>
            <path class="cls-3" d="M676.97,545.02c1.66.84,3.04,1.85,4.25,3.2.8.9,2.3.79,3.16,0,.86-.84.8-2.19,0-3.09-1.49-1.57-3.22-2.86-5.17-3.87-1.09-.56-2.41-.28-3.04.79-.57,1.01-.29,2.47.8,2.97h0Z"/>
            <path class="cls-3" d="M685.7,545.64c.57,2.08,1.15,4.21,1.72,6.29.75,2.69,5.05,1.57,4.31-1.18-.58-2.08-1.15-4.21-1.72-6.29-.74-2.7-5.05-1.57-4.31,1.18h0Z"/>
            <path class="cls-3" d="M684.32,556.08c-1.49,2.02-2.64,4.21-3.62,6.51-.46,1.12.52,2.41,1.55,2.69,1.26.34,2.3-.45,2.76-1.51.81-1.96,1.95-3.76,3.16-5.45.69-.95.17-2.41-.81-2.97-1.15-.73-2.35-.28-3.04.73h0Z"/>
            <path class="cls-3" d="M676.28,567.93c.23.17.52.28.75.45q.23.17.06.05c.17.11.35.28.52.39.29.22.52.5.75.73q.17.22.05.05c.12.17.23.34.35.51.69,1.01,1.95,1.4,3.04.79.98-.56,1.49-1.96.8-2.97-1.03-1.57-2.41-2.87-4.08-3.82-1.03-.62-2.41-.22-3.04.79-.63,1.07-.29,2.41.8,3.03h0Z"/>
            <path class="cls-3" d="M670.71,570.96c.98,1.12,1.95,2.25,2.93,3.37.8.9,2.35.79,3.16,0,.92-.9.8-2.19,0-3.09-.98-1.12-1.95-2.25-2.93-3.37-.8-.9-2.35-.79-3.16,0-.92.9-.74,2.19,0,3.09h0Z"/>
            <path class="cls-3" d="M679.32,587.92c-1.38,1.85-2.76,3.7-4.13,5.61-.69.96-.17,2.41.8,2.97,1.15.67,2.36.17,3.05-.79,1.38-1.85,2.75-3.7,4.13-5.61.69-.95.18-2.41-.8-2.97-1.09-.67-2.29-.17-3.04.79h0Z"/>
            <path class="cls-3" d="M675.71,605.15c.81.34,1.66.73,2.47,1.07,1.09.5,2.41.34,3.04-.79.57-.95.29-2.47-.8-2.98-.8-.34-1.67-.73-2.47-1.07-1.09-.5-2.41-.34-3.04.79-.57.96-.34,2.53.8,2.97h0Z"/>
            <path class="cls-3" d="M667.72,583.65c1.09,1.63,2.7,2.81,4.65,3.31,1.21.28,2.41-.34,2.76-1.51.35-1.12-.4-2.41-1.55-2.7-.29-.05-.52-.11-.75-.22.23.11.23.06,0,0-.17-.11-.35-.17-.52-.28q-.23-.17,0,0c-.12-.06-.18-.17-.29-.28-.11-.11-.17-.17-.29-.28-.4-.45.23.34-.12-.17-.69-1.01-1.95-1.4-3.04-.79-1.03.51-1.55,1.91-.86,2.92h0Z"/>
            <path class="cls-3" d="M640.27,564.34c.75,2.58,1.43,5.22,2.18,7.81.75,2.7,5.05,1.57,4.31-1.18-.75-2.58-1.44-5.22-2.18-7.8-.8-2.64-5.06-1.52-4.31,1.18h0Z"/>
            <path class="cls-3" d="M627.11,573.43c.63,1.68,1.32,3.31,1.95,5,.46,1.12,1.49,1.85,2.76,1.52,1.09-.28,2.01-1.57,1.55-2.7-.63-1.68-1.32-3.31-1.95-5-.46-1.12-1.49-1.86-2.76-1.52-1.09.28-1.95,1.57-1.55,2.7h0Z"/>
            <path class="cls-3" d="M700.06,538.23c3.5.67,6.89.73,10.39.22,2.81-.39,1.61-4.6-1.2-4.21-2.7.39-5.4.34-8.04-.22-2.76-.56-3.97,3.65-1.15,4.21h0Z"/>
            <path class="cls-3" d="M700.75,545.36c1.61.28,3.21.56,4.82.84,1.2.22,2.41-.28,2.76-1.51.29-1.07-.34-2.47-1.55-2.7-1.6-.28-3.21-.56-4.82-.84-1.21-.22-2.41.28-2.76,1.51-.35,1.07.34,2.47,1.55,2.7h0Z"/>
            <path class="cls-3" d="M704.49,548.84v8.7c0,2.81,4.48,2.81,4.48,0v-8.7c0-2.81-4.48-2.81-4.48,0h0Z"/>
            <path class="cls-3" d="M712.7,551.54c1.15,2.08,2.59,3.99,4.25,5.67,2.01,2.02,5.11-1.06,3.16-3.09-1.43-1.46-2.58-3.03-3.56-4.77-1.38-2.47-5.23-.28-3.85,2.19h0Z"/>
            <path class="cls-3" d="M708.04,569.56c.86,1.57,1.72,3.09,2.59,4.66,1.37,2.47,5.23.28,3.85-2.19-.86-1.57-1.72-3.09-2.58-4.66-1.38-2.53-5.23-.28-3.85,2.19h0Z"/>
            <path class="cls-3" d="M691.33,572.42c.8,1.57,1.72,3.09,2.7,4.61.63,1.01,1.95,1.4,3.04.79,1.03-.56,1.43-1.97.8-2.98-.97-1.46-1.89-3.03-2.7-4.6-.52-1.07-2.07-1.35-3.05-.79-1.15.62-1.38,1.91-.8,2.97h0Z"/>
            <path class="cls-3" d="M688.92,581.52c.63,1.68,1.55,3.15,2.87,4.38.86.84,2.3.84,3.16,0,.86-.84.86-2.25,0-3.09-.23-.22-.46-.45-.63-.67q-.17-.22-.05-.11c-.12-.11-.17-.22-.29-.39-.17-.28-.35-.5-.46-.79-.05-.11-.12-.28-.23-.39.06.17.06.11-.05-.11-.4-1.12-1.49-1.85-2.76-1.51-1.09.28-1.95,1.57-1.55,2.69h0Z"/>
            <path class="cls-3" d="M700,599.54c2.81-.9,5.57-2.02,8.21-3.31,2.58-1.29.29-5.06-2.24-3.76-2.29,1.18-4.65,2.13-7.12,2.86-2.75.9-1.61,5.11,1.15,4.21h0Z"/>
            <path class="cls-3" d="M711.72,603.19c1.15-.95,2.53-1.8,3.91-2.36,1.15-.45,1.89-1.4,1.55-2.69-.29-1.01-1.61-1.97-2.76-1.52-2.18.9-4.08,2.02-5.92,3.48-.92.79-.81,2.3,0,3.09.98.9,2.3.73,3.22,0h0Z"/>
            <path class="cls-3" d="M716.14,593.08c1.38.67,2.35,1.35,3.39,2.41.86.84,2.3.84,3.16,0,.86-.84.86-2.24,0-3.09-1.26-1.24-2.7-2.3-4.31-3.09-1.09-.5-2.41-.28-3.04.79-.58.95-.29,2.41.8,2.97h0Z"/>
            <path class="cls-3" d="M708.56,588.93c.05-.22.12-.39.23-.62s.12-.28.05-.11c.06-.11.12-.28.17-.39.29-.51.58-1.01.98-1.46.75-.96.17-2.41-.8-2.98-1.15-.67-2.35-.17-3.04.78-.81,1.07-1.43,2.36-1.84,3.65-.35,1.12.4,2.36,1.55,2.69,1.15.28,2.35-.39,2.7-1.57h0Z"/>
            <path class="cls-3" d="M727.92,583.09c1.78-1.06,3.45-2.3,4.94-3.76,2.07-1.96-1.09-5.05-3.16-3.09-1.21,1.18-2.53,2.19-4.02,3.09-2.47,1.46-.23,5.22,2.24,3.76h0Z"/>
            <path class="cls-3" d="M725.28,574.83c1.9.73,4.02.45,5.86-.45,1.09-.56,1.38-2.02.8-2.98-.63-1.06-1.95-1.35-3.04-.79-.8.39-1.44.34-2.41,0-1.15-.45-2.47.45-2.76,1.52-.35,1.23.46,2.25,1.55,2.69h0Z"/>
            <path class="cls-3" d="M667.9,541.65c.23,1.35.4,2.7.63,4.04.17,1.18,1.67,1.8,2.76,1.51,1.26-.34,1.72-1.51,1.55-2.69-.23-1.34-.4-2.69-.63-4.04-.18-1.18-1.66-1.8-2.76-1.52-1.26.34-1.72,1.52-1.55,2.7h0Z"/>
            <path class="cls-3" d="M643.6,541.77c.63.73,1.32,1.41,1.95,2.13.8.9,2.3.79,3.16,0,.86-.84.8-2.19,0-3.09-.63-.73-1.32-1.4-1.95-2.13-.8-.9-2.3-.79-3.16,0-.92.84-.81,2.19,0,3.09h0Z"/>
            <path class="cls-3" d="M720.51,536.83c2.58.79,5.23.79,7.87.17,2.76-.73,1.61-4.88-1.2-4.21-1.84.45-3.68.39-5.46-.17-2.76-.84-3.96,3.37-1.2,4.21h0Z"/>
            <path class="cls-3" d="M729.24,526.66c1.2,1.91,2.53,3.76,3.9,5.56.75.96,1.9,1.46,3.05.79.97-.56,1.55-2.02.8-2.98-1.38-1.8-2.7-3.65-3.91-5.56-1.49-2.41-5.34-.22-3.85,2.19h0Z"/>
            <path class="cls-3" d="M738.14,530.71c1.9,2.41,3.79,4.88,5.69,7.3.75.95,1.9,1.46,3.05.79.97-.56,1.55-2.02.8-2.97-1.9-2.41-3.79-4.89-5.69-7.3-.75-.95-1.9-1.46-3.05-.78-.92.56-1.55,2.02-.8,2.98h0Z"/>
            <path class="cls-3" d="M744,548.51c2.01-.39,4.02-.56,6.09-.62,2.87-.05,2.87-4.38,0-4.38-2.47,0-4.88.28-7.29.78-2.82.56-1.61,4.78,1.2,4.21h0Z"/>
            <path class="cls-3" d="M744.92,554.85c1.61-.28,3.16-.62,4.77-.89,1.21-.22,1.84-1.63,1.55-2.7-.34-1.24-1.55-1.74-2.75-1.52-1.61.28-3.16.62-4.77.9-1.2.22-1.83,1.63-1.55,2.7.35,1.24,1.55,1.74,2.76,1.51h0Z"/>
            <path class="cls-3" d="M728.44,547.27c.63,1.74,1.32,3.54,1.95,5.28.4,1.12,1.49,1.85,2.75,1.51,1.09-.28,1.95-1.57,1.55-2.69-.63-1.74-1.32-3.54-1.95-5.28-.4-1.12-1.49-1.85-2.76-1.51-1.09.28-1.95,1.57-1.55,2.7h0Z"/>
            <path class="cls-3" d="M750.5,559.17c2.3,1.63,4.48,3.37,6.72,5.05.92.73,2.24.9,3.16,0,.8-.79.97-2.36,0-3.09-2.53-1.97-5.06-3.87-7.64-5.78-.98-.73-2.47-.17-3.04.79-.63,1.12-.17,2.3.81,3.03h0Z"/>
            <path class="cls-3" d="M751.93,567.2c1.84,2.13,3.33,4.44,4.6,6.91,1.32,2.53,5.17.28,3.85-2.19-1.43-2.81-3.27-5.39-5.29-7.81-1.83-2.13-4.94.95-3.16,3.09h0Z"/>
            <path class="cls-3" d="M750.09,574.67c.63,1.91,1.09,3.93,1.26,5.95.23,2.75,4.71,2.81,4.48,0-.23-2.41-.69-4.77-1.44-7.07-.92-2.7-5.23-1.57-4.31,1.12h0Z"/>
            <path class="cls-3" d="M742.39,578.09c.17,2.08.12,4.16-.17,6.23-.17,1.18,1.15,2.19,2.24,2.19,1.32,0,2.07-1.01,2.24-2.19.29-2.08.34-4.16.17-6.23-.23-2.75-4.71-2.81-4.48,0h0Z"/>
            <path class="cls-3" d="M731.94,587.07c1.15,3.2,2.7,6.18,4.71,8.93,1.66,2.25,5.51.11,3.85-2.19-1.78-2.42-3.22-5.05-4.25-7.86-.92-2.64-5.23-1.51-4.31,1.12h0Z"/>
            <path class="cls-3" d="M727.4,595.55c1.09.84,2.12,1.69,3.22,2.47.98.73,2.24.9,3.16,0,.8-.79.98-2.36,0-3.09-1.09-.84-2.12-1.68-3.22-2.47-.98-.73-2.24-.9-3.16,0-.75.79-.92,2.36,0,3.09h0Z"/>
            <path class="cls-3" d="M717.41,606.5c2.24-1.34,4.08-3.09,5.57-5.16.69-.95.17-2.41-.8-2.98-1.09-.62-2.35-.17-3.04.79-1.03,1.46-2.41,2.69-3.96,3.59-2.41,1.46-.17,5.22,2.24,3.76h0Z"/>
            <path class="cls-3" d="M692.82,611.33c2.36-1.57,4.71-3.09,7.01-4.66,2.35-1.57.12-5.33-2.24-3.76-2.35,1.57-4.71,3.09-7.01,4.66-2.35,1.57-.17,5.33,2.24,3.76h0Z"/>
            <path class="cls-3" d="M689.95,599.37c.05,0,.69.28.23.05.29.11.52.22.74.34.23.11.52.28.75.45.06.05.75.5.4.28.98.73,2.24.9,3.16,0,.8-.78.98-2.35,0-3.09-1.26-1.01-2.58-1.74-4.13-2.25-1.15-.39-2.41.45-2.76,1.52-.29,1.24.46,2.3,1.61,2.7h0Z"/>
            <path class="cls-3" d="M716.66,563.61c.92,1.23,1.89,2.53,2.81,3.76.69.95,1.95,1.4,3.04.79.98-.56,1.49-2.02.8-2.98-.92-1.23-1.89-2.53-2.81-3.76-.69-.95-1.95-1.4-3.05-.79-.98.51-1.49,1.97-.8,2.98h0Z"/>
            <path class="cls-3" d="M729.99,568.16c3.05-.56,6.15-.84,9.25-1.01,2.87-.11,2.87-4.49,0-4.38-3.5.17-7.01.56-10.45,1.12-2.81.56-1.61,4.77,1.2,4.27h0Z"/>
            <path class="cls-3" d="M745.67,569.95c-.52-.22.06.06.12.06.23.11.4.22.63.34.23.11.4.22.58.39-.46-.34.17.11.23.22.92.79,2.24.9,3.16,0,.8-.79.92-2.3,0-3.09-1.09-.95-2.24-1.57-3.5-2.13-1.15-.45-2.47.51-2.76,1.52-.4,1.23.4,2.25,1.55,2.69h0Z"/>
            <path class="cls-3" d="M707.18,518.97c.12,3.03.58,6.01,1.38,8.93.75,2.7,5.05,1.57,4.31-1.18-.69-2.58-1.09-5.17-1.21-7.81-.17-2.75-4.66-2.75-4.48.05h0Z"/>
            <path class="cls-3" d="M716.6,515.83c1.49-.17,2.93-.06,4.31.62,1.09.51,2.41.28,3.04-.79.58-.95.29-2.47-.8-2.97-2.07-.95-4.25-1.46-6.55-1.23-1.2.11-2.24.9-2.24,2.19,0,1.12,1.03,2.36,2.24,2.19h0Z"/>
            <path class="cls-3" d="M722.69,519.59c-.17,2.08.46,4.21,1.72,5.84.75.96,1.9,1.46,3.05.79.97-.56,1.55-2.02.8-2.98-.86-1.12-1.26-2.25-1.15-3.65.12-1.18-1.09-2.19-2.24-2.19s-2.07,1.01-2.18,2.19h0Z"/>
            <path class="cls-3" d="M727.81,520.1c2.64.73,5.28,1.68,7.75,2.81,2.58,1.18,4.83-2.58,2.24-3.76-2.87-1.29-5.8-2.41-8.85-3.26-2.75-.73-3.9,3.48-1.14,4.21h0Z"/>
            <path class="cls-3" d="M714.19,506.4c2.53,2.24,5.29,4.21,8.27,5.9,2.52,1.4,4.77-2.36,2.24-3.76-2.64-1.46-5.11-3.2-7.35-5.16-2.13-1.96-5.29,1.12-3.16,3.03h0Z"/>
            <path class="cls-3" d="M701.33,512.57c-1.09,1.96-2.41,3.71-4.02,5.28-2.01,2.02,1.15,5.05,3.16,3.09,1.84-1.8,3.45-3.87,4.71-6.18,1.38-2.47-2.47-4.66-3.85-2.19h0Z"/>
            <path class="cls-3" d="M687.36,524.42c1.49.51,3.16.51,4.65.17,1.21-.28,1.9-1.57,1.55-2.7-.35-1.18-1.55-1.8-2.76-1.51,0,0-.75.11-.35.11h-.69s-.75-.11-.35,0c-.29-.06-.63-.17-.92-.22-1.15-.39-2.41.45-2.75,1.51-.29,1.12.46,2.25,1.6,2.64h0Z"/>
            <path class="cls-3" d="M693.46,504.26c.69,2.08,1.38,4.16,2.01,6.18.86,2.64,5.17,1.52,4.31-1.18-.69-2.08-1.38-4.16-2.01-6.17-.92-2.64-5.23-1.52-4.31,1.18h0Z"/>
            <path class="cls-3" d="M686.74,496.12c2.58,1.01,5.23,1.8,7.93,2.3,2.81.51,4.02-3.7,1.21-4.21-2.76-.5-5.34-1.23-7.93-2.3-1.15-.45-2.47.51-2.75,1.51-.35,1.24.4,2.25,1.55,2.7h0Z"/>
            <path class="cls-3" d="M704.54,501.18c1.38,1.51,3.1,2.8,4.88,3.76,2.53,1.35,4.77-2.41,2.24-3.76-1.55-.84-2.82-1.85-4.02-3.09-.8-.9-2.3-.79-3.16,0-.86.89-.8,2.24.05,3.09h0Z"/>
            <path class="cls-3" d="M657.04,552.27c1.61.11,3.16.22,4.77.39,1.21.11,2.24-1.06,2.24-2.19,0-1.24-1.03-2.08-2.24-2.19-1.61-.11-3.16-.22-4.77-.39-1.2-.11-2.24,1.06-2.24,2.19,0,1.23,1.03,2.08,2.24,2.19h0Z"/>
            <path class="cls-3" d="M701.5,577.14c2.58,1.68,5.28,3.03,8.22,4.1,2.7,1.01,3.85-3.2,1.2-4.21-2.53-.96-4.88-2.19-7.12-3.71-2.47-1.51-4.65,2.3-2.3,3.82h0Z"/>
            <path class="cls-3" d="M644.23,597.58c2.3.28,4.48.39,6.78.11,1.21-.17,2.24-.9,2.24-2.19,0-1.06-1.03-2.35-2.24-2.19-1.83.22-3.73.28-5.57.06-1.21-.17-2.41.28-2.75,1.51-.29,1.07.34,2.53,1.55,2.7h0Z"/>
            <path class="cls-3" d="M642.28,577.76c.52,1.18.98,2.36,1.49,3.54.46,1.12,1.43,1.86,2.76,1.52,1.09-.28,2.01-1.57,1.55-2.7-.52-1.18-.98-2.36-1.49-3.54-.46-1.12-1.43-1.85-2.75-1.52-1.09.28-2.01,1.57-1.55,2.7h0Z"/>
            <path class="cls-3" d="M630.04,544.69c.92-1.01,1.9-1.91,2.93-2.75.92-.73.8-2.3,0-3.09-.92-.9-2.24-.73-3.16,0-1.03.84-2.01,1.74-2.93,2.75-.8.9-.92,2.19,0,3.09.86.79,2.35.9,3.16,0h0Z"/>
            <path class="cls-3" d="M632.91,517.12c-.86,1.41-1.49,2.92-1.9,4.49-.29,1.12.34,2.35,1.55,2.69,1.15.34,2.41-.39,2.76-1.51.34-1.24.8-2.36,1.44-3.42,1.49-2.47-2.36-4.66-3.85-2.25h0Z"/>
            <path class="cls-3" d="M606.2,538.51c1.44-.62,2.76-1.35,4.02-2.25.98-.67,1.44-1.91.8-2.97-.57-.96-2.07-1.46-3.04-.79-1.26.89-2.58,1.63-4.02,2.24-1.09.45-1.38,2.08-.81,2.98.69,1.12,1.95,1.29,3.05.79h0Z"/>
            <path class="cls-3" d="M642.56,522.18c1.2.39,2.35.67,3.62.84,1.21.17,2.41-.28,2.76-1.51.29-1.07-.34-2.53-1.55-2.7-1.21-.17-2.41-.45-3.62-.84-1.15-.39-2.41.39-2.76,1.51-.35,1.18.4,2.3,1.55,2.7h0Z"/>
            <path class="cls-3" d="M654.74,533.52c.69-.67,1.37-1.29,2.06-1.97.86-.84.86-2.25,0-3.09-.86-.84-2.29-.84-3.16,0-.69.67-1.38,1.29-2.07,1.96-.86.84-.86,2.25,0,3.09.86.84,2.3.78,3.16,0h0Z"/>
            <path class="cls-3" d="M679.96,535.59c1.32,1.74,2.87,3.25,4.77,4.43,1.03.62,2.47.22,3.04-.79.63-1.06.23-2.36-.8-2.97-1.15-.73-2.35-1.8-3.16-2.87-.69-.95-1.95-1.4-3.04-.78-.98.56-1.49,2.02-.8,2.97h0Z"/>
            <path class="cls-3" d="M692.13,536.88c.69-.11,1.9-.11,2.82-.05,1.2.11,2.24-1.07,2.24-2.19,0-1.29-1.03-2.08-2.24-2.19-1.32-.11-2.64,0-4.02.22-1.2.22-1.84,1.63-1.55,2.7.34,1.24,1.55,1.68,2.75,1.51h0Z"/>
            <path class="cls-3" d="M680.47,524.53c.57.96,1.15,1.91,1.72,2.92.57,1.01,2.01,1.4,3.04.79,1.03-.61,1.38-1.96.8-2.97-.57-.96-1.15-1.91-1.72-2.92-.57-1.01-2.01-1.4-3.04-.79-1.03.56-1.38,1.91-.8,2.98h0Z"/>
            <path class="cls-3" d="M673.64,513.08c1.32.62,1.84,1.01,2.81,2.08.8.9,2.3.84,3.16,0,.86-.84.8-2.19,0-3.09-1.03-1.12-2.3-2.08-3.73-2.75-1.09-.5-2.41-.28-3.05.79-.58.96-.29,2.47.8,2.98h0Z"/>
            <path class="cls-3" d="M712.35,531.5c.12,1.57.29,3.2.52,4.77.17,1.18,1.66,1.8,2.76,1.51,1.26-.34,1.72-1.51,1.55-2.7-.17-1.18-.29-2.41-.35-3.59-.06-1.18-.98-2.19-2.24-2.19s-2.36,1.01-2.24,2.19h0Z"/>
            <path class="cls-3" d="M710,510.05c-.35.79-.69,1.51-1.03,2.3-.52,1.07-.35,2.36.8,2.97.98.56,2.53.28,3.04-.79.35-.79.69-1.51,1.03-2.3.52-1.07.35-2.36-.8-2.98-.92-.51-2.52-.28-3.04.79h0Z"/>
            <path class="cls-3" d="M714.65,570.62c.52.96,1.03,1.91,1.55,2.87.57,1.07,2.07,1.34,3.04.79,1.09-.62,1.38-1.91.8-2.98-.52-.95-1.03-1.91-1.55-2.86-.57-1.06-2.07-1.35-3.04-.79-1.09.62-1.38,1.91-.81,2.97h0Z"/>
            <path class="cls-3" d="M665.08,600.83c.69,1.74,1.26,3.54,1.72,5.33.63,2.75,4.94,1.57,4.31-1.18-.46-1.8-.97-3.59-1.72-5.33-.46-1.12-1.49-1.85-2.76-1.51-1.09.34-2.01,1.57-1.55,2.69h0Z"/>
            <path class="cls-3" d="M634.23,590.95c.8-1.29,1.61-2.58,2.41-3.93,1.49-2.41-2.36-4.61-3.85-2.19-.8,1.29-1.61,2.58-2.41,3.93-1.49,2.41,2.35,4.6,3.85,2.19h0Z"/>
            <path class="cls-3" d="M621.71,584.44c.17-.11.34-.17.46-.28.12-.06.23-.11.35-.17q-.23.11,0,0c.46-.17.97-.28,1.44-.34,1.2-.17,1.83-1.63,1.55-2.7-.35-1.23-1.55-1.68-2.76-1.51-1.15.17-2.3.62-3.33,1.18-1.03.62-1.43,1.97-.8,2.98.69,1.07,2.07,1.46,3.1.84h0Z"/>
            <path class="cls-3" d="M720.4,548.4c1.61-.28,3.27-.56,4.88-.84,1.21-.22,1.84-1.63,1.55-2.7-.34-1.23-1.55-1.74-2.76-1.51-1.61.28-3.27.56-4.88.84-1.2.22-1.84,1.63-1.55,2.7.35,1.23,1.55,1.74,2.76,1.52h0Z"/>
            <path class="cls-3" d="M735.73,584.94c.8,1.63,1.95,3.14,3.33,4.38.86.79,2.3.84,3.16,0,.86-.84.86-2.25,0-3.09-1.15-1.07-1.95-2.08-2.64-3.48-.52-1.07-2.07-1.35-3.04-.79-1.15.62-1.38,1.91-.8,2.97h0Z"/>
            <path class="cls-3" d="M625.73,589.68c1-1.29,2.2-2.37,3.59-3.24,1.64-1-.09-3.36-1.73-2.36-1.6.99-3.01,2.27-4.17,3.78-1.14,1.46,1.15,3.34,2.31,1.83h0Z"/>
          </g>
        </g>
        <g class="cls-16">
          <path class="cls-10" d="M474.48,720.23c-75.12-16.76-117.09-80.51-82.17-164.38,16-38.45,73.33-161.5,127.71-128.3,34,20.75,93.32,116.48,98.96,170.8,8.19,78.9-62.5,140.17-144.49,121.88Z"/>
          <path class="cls-5" d="M546.49,689.92c-4.76.75-8.5-4.38-6.14-8.58,5.05-9,12.79-1.79,30.24-26.89,11.3-16.26,16.22-32.12,13.23-55.03-2.49-19.08-10.38-41.58-17.5-55.61-6.73-13.28-25.27-35.26-17.51-38.59,11.02-13.68,49.31,58.1,49.21,100.55,2.17,45.92-31.18,80.94-51.52,84.15Z"/>
        </g>
      </g>
      <g>
        <path class="cls-15" d="M40.16,21.67c-1.3-3.4-.55-6.16,2.28-8.28C54.84,5.53,66.04,1.27,76.04.64,86.04,0,94.47,1.81,101.32,6.05c6.85,4.25,12.01,10.2,15.49,17.84,3.48,7.65,4.94,15.77,4.4,24.38-.55,8.6-3.26,17.05-8.15,25.33-4.89,8.28-12.23,15.08-22.02,20.39,5.22,4.04,9.02,10.04,11.42,18,2.39,7.97,3.31,16.78,2.77,26.45-.55,9.67-2.5,19.6-5.87,29.79-3.37,10.2-8.15,19.44-14.35,27.72-6.2,8.28-13.81,15.08-22.83,20.39-9.03,5.31-19.41,7.97-31.15,7.97l-.98-.96h-1.63c-12.18,0-20.66-5.2-25.44-15.61-2.82-6.16-3.64-14.39-2.45-24.69,1.2-10.3,3.42-21.56,6.69-33.77,3.26-12.21,7.18-24.85,11.74-37.92,4.57-13.06,8.69-25.49,12.4-37.28,3.69-11.79,6.52-22.3,8.48-31.54,1.96-9.24,2.06-16.2.33-20.87ZM41.14,177.16c-.22,3.19,1.09,5.1,3.91,5.74,2.39,0,4.84-1.54,7.34-4.62,2.5-3.08,4.73-7.06,6.69-11.95,1.96-4.88,3.64-10.3,5.06-16.25,1.41-5.94,2.28-11.79,2.61-17.52.33-5.74.11-11.04-.65-15.93-.76-4.88-2.34-8.71-4.73-11.47-3.7,12.11-7.45,24.43-11.25,36.96-3.81,12.54-6.8,24.22-8.97,35.05ZM74.74,39.19c1.3,6.8.21,17-3.26,30.59,4.57-1.91,8.21-4.99,10.93-9.24,2.72-4.25,4.29-8.39,4.73-12.43.43-4.03-.38-7.43-2.45-10.2-2.07-2.76-5.71-3.5-10.93-2.23l.98,3.51Z"/>
        <path class="cls-15" d="M186.29,56.72c8.91,0,16.09,2.39,21.53,7.17,5.43,4.78,9.35,11.05,11.74,18.8,2.39,7.76,3.48,16.62,3.26,26.61-.22,9.99-1.52,20.23-3.91,30.75-2.4,10.52-5.76,20.77-10.11,30.75-4.35,9.99-9.41,18.85-15.17,26.6-5.76,7.76-12.12,14.02-19.08,18.8-6.96,4.78-14.25,7.17-21.85,7.17-9.35,0-16.91-2.39-22.67-7.17-5.76-4.78-9.95-11.04-12.56-18.8-2.61-7.75-3.75-16.62-3.42-26.6.33-9.98,1.74-20.23,4.24-30.75,2.5-10.51,6.03-20.76,10.6-30.75,4.57-9.98,9.79-18.85,15.66-26.61,5.87-7.75,12.39-14.02,19.57-18.8,7.18-4.78,14.57-7.17,22.18-7.17ZM154.98,185.12c1.52,0,3.48-2.23,5.87-6.69,2.39-4.46,4.78-10.04,7.18-16.73,2.39-6.69,4.73-13.91,7.01-21.67,2.28-7.75,4.13-14.97,5.54-21.67,1.41-6.69,2.28-12.27,2.61-16.73.33-4.46-.16-6.69-1.47-6.69-1.74,0-3.75,2.23-6.03,6.69-2.28,4.46-4.57,10.04-6.85,16.73-2.28,6.69-4.46,13.92-6.52,21.67-2.07,7.76-3.81,14.98-5.22,21.67-1.42,6.69-2.4,12.27-2.94,16.73-.55,4.46-.28,6.69.82,6.69Z"/>
        <path class="cls-15" d="M390.15,159.63c1.74-6.16,3.53-9.03,5.38-8.6,1.85.43,2.01,3.82.49,10.2-.65,3.19-1.85,8.23-3.59,15.13-1.74,6.91-4.19,13.81-7.34,20.71-3.15,6.91-7.18,13.01-12.07,18.32-4.89,5.31-10.93,7.97-18.1,7.97-5.22,0-10.11-1.22-14.68-3.66-4.57-2.44-8.05-6.42-10.44-11.95-1.74-3.39-2.67-7.59-2.77-12.59-.11-4.99.21-10.56.98-16.73.76-6.16,2.01-12.75,3.75-19.75,1.74-7.01,3.69-14.23,5.87-21.67,1.52-5.31,2.99-10.52,4.4-15.61,1.41-5.1,2.55-9.61,3.42-13.54.87-3.93,1.3-7.06,1.3-9.4s-.65-3.5-1.96-3.5c-1.74,0-3.86,2.07-6.36,6.21-2.5,4.14-4.95,9.29-7.34,15.45-2.18,7.65-4.68,15.88-7.5,24.69-2.83,8.82-5.28,17.42-7.34,25.81-2.07,8.39-3.37,16.25-3.91,23.58-.55,7.33.38,13.33,2.77,18,2.17,4.46,1.9,7.97-.82,10.51-2.72,2.55-6.42,3.93-11.09,4.14-4.68.21-9.52-.96-14.52-3.5-5.01-2.55-8.81-6.58-11.42-12.11-1.96-4.46-3.05-9.5-3.26-15.13-.22-5.63.16-11.52,1.14-17.68.98-6.16,2.33-12.37,4.08-18.64,1.74-6.26,3.59-12.16,5.54-17.68,4.57-13.81,7.61-24.53,9.13-32.18,1.52-7.65.98-11.47-1.63-11.47-1.96,0-4.3,2.34-7.01,7.01-2.72,4.67-5.28,10.41-7.67,17.21-2.18,7.86-4.68,16.04-7.5,24.53-2.83,8.5-5.27,16.78-7.34,24.85-2.07,8.08-3.37,15.61-3.91,22.62-.55,7.01.38,12.85,2.77,17.52,2.17,4.46,1.9,7.97-.82,10.51-2.72,2.55-6.42,3.93-11.09,4.14-4.68.21-9.57-.96-14.68-3.5-5.11-2.55-8.97-6.58-11.58-12.11-2.82-6.16-4.02-13.27-3.59-21.35.44-8.07,1.85-16.51,4.24-25.33,2.39-8.81,5.22-17.79,8.48-26.92,3.26-9.13,6.25-17.89,8.97-26.29,2.72-8.39,4.73-16.09,6.03-23.1,1.3-7.01,1.09-12.85-.65-17.52-1.3-3.4-.65-6.05,1.96-7.97,2.61-1.91,6.03-2.44,10.27-1.59,4.24.85,8.48,3.35,12.72,7.49,4.24,4.14,7.34,10.47,9.3,18.96,4.13-8.07,9.18-14.66,15.17-19.75,5.98-5.1,12.34-7.65,19.08-7.65,14.13,0,21.42,8.28,21.85,24.85,3.91-7.22,8.48-13.17,13.7-17.84,5.22-4.67,10.98-7.01,17.29-7.01,10.44,0,17.12,4.62,20.06,13.86,2.94,9.24,1.79,23.42-3.42,42.54-1.09,4.04-2.5,9.08-4.24,15.13-1.74,6.05-3.42,12.22-5.06,18.48-1.63,6.27-3.15,12.16-4.57,17.68-1.42,5.53-2.45,9.77-3.1,12.75-1.09,5.1-1.14,8.82-.16,11.15.98,2.34,2.33,3.5,4.08,3.5,1.96,0,3.8-1.06,5.55-3.19,1.74-2.12,3.42-4.83,5.06-8.12,1.63-3.29,3.1-6.8,4.4-10.51,1.3-3.71,2.39-7.17,3.26-10.36Z"/>
        <path class="cls-15" d="M425.7,21.67c-1.3-3.4-.55-6.16,2.28-8.28,12.39-7.86,23.59-12.11,33.6-12.75,10-.64,18.43,1.17,25.28,5.42,6.85,4.25,12.01,10.2,15.49,17.84,3.48,7.65,4.94,15.77,4.4,24.38-.55,8.6-3.26,17.05-8.15,25.33-4.89,8.28-12.23,15.08-22.02,20.39,5.22,4.04,9.02,10.04,11.42,18,2.39,7.97,3.31,16.78,2.77,26.45-.55,9.67-2.5,19.6-5.87,29.79-3.37,10.2-8.15,19.44-14.35,27.72-6.2,8.28-13.81,15.08-22.83,20.39-9.03,5.31-19.41,7.97-31.15,7.97l-.98-.96h-1.63c-12.18,0-20.66-5.2-25.44-15.61-2.82-6.16-3.64-14.39-2.45-24.69,1.2-10.3,3.42-21.56,6.69-33.77,3.26-12.21,7.18-24.85,11.74-37.92,4.57-13.06,8.69-25.49,12.4-37.28,3.69-11.79,6.52-22.3,8.48-31.54,1.96-9.24,2.06-16.2.33-20.87ZM426.68,177.16c-.22,3.19,1.09,5.1,3.91,5.74,2.39,0,4.84-1.54,7.34-4.62,2.5-3.08,4.73-7.06,6.69-11.95,1.96-4.88,3.64-10.3,5.06-16.25,1.41-5.94,2.28-11.79,2.61-17.52.33-5.74.11-11.04-.65-15.93-.76-4.88-2.34-8.71-4.73-11.47-3.7,12.11-7.45,24.43-11.25,36.96-3.81,12.54-6.8,24.22-8.97,35.05ZM460.28,39.19c1.3,6.8.21,17-3.26,30.59,4.57-1.91,8.21-4.99,10.93-9.24,2.72-4.25,4.29-8.39,4.73-12.43.43-4.03-.38-7.43-2.45-10.2-2.07-2.76-5.71-3.5-10.93-2.23l.98,3.51Z"/>
        <path class="cls-15" d="M571.83,56.72c8.91,0,16.09,2.39,21.53,7.17,5.43,4.78,9.35,11.05,11.74,18.8,2.39,7.76,3.48,16.62,3.26,26.61-.22,9.99-1.52,20.23-3.91,30.75-2.4,10.52-5.76,20.77-10.11,30.75-4.35,9.99-9.41,18.85-15.17,26.6-5.76,7.76-12.13,14.02-19.08,18.8-6.96,4.78-14.25,7.17-21.85,7.17-9.35,0-16.91-2.39-22.67-7.17-5.76-4.78-9.95-11.04-12.56-18.8-2.61-7.75-3.75-16.62-3.42-26.6.33-9.98,1.74-20.23,4.24-30.75,2.5-10.51,6.03-20.76,10.6-30.75,4.57-9.98,9.79-18.85,15.66-26.61,5.87-7.75,12.39-14.02,19.57-18.8,7.18-4.78,14.57-7.17,22.18-7.17ZM540.52,185.12c1.52,0,3.48-2.23,5.87-6.69,2.39-4.46,4.78-10.04,7.18-16.73,2.39-6.69,4.73-13.91,7.01-21.67,2.28-7.75,4.13-14.97,5.54-21.67,1.41-6.69,2.28-12.27,2.61-16.73.33-4.46-.16-6.69-1.47-6.69-1.74,0-3.75,2.23-6.03,6.69-2.28,4.46-4.57,10.04-6.85,16.73-2.28,6.69-4.46,13.92-6.52,21.67-2.07,7.76-3.81,14.98-5.22,21.67-1.42,6.69-2.4,12.27-2.94,16.73-.55,4.46-.28,6.69.82,6.69Z"/>
        <path class="cls-15" d="M647.83,223.36c-11.74-2.34-20.61-8.02-26.58-17.05-5.98-9.03-9.52-19.7-10.6-32.02-1.09-12.32-.06-25.33,3.1-39.03,3.15-13.7,7.88-26.39,14.19-38.08,6.3-11.68,13.97-21.29,23-28.84,9.02-7.54,18.86-11.31,29.52-11.31,6.3,0,11.79,1.33,16.47,3.98,4.67,2.66,8.32,6.16,10.93,10.51,2.61,4.36,4.29,9.4,5.06,15.13.76,5.74.38,11.58-1.14,17.52-1.74,7.86-4.3,14.13-7.67,18.8-3.37,4.67-6.96,8.28-10.76,10.83-3.81,2.55-7.56,4.04-11.25,4.46-3.7.43-6.91.27-9.62-.48-2.72-.74-4.68-1.96-5.87-3.66-1.2-1.7-1.03-3.61.49-5.74,6.52-8.92,10.16-16.57,10.93-22.94.76-6.37-.49-9.88-3.75-10.51-1.74-.21-3.91,1.7-6.52,5.74-2.61,4.04-5.17,9.24-7.67,15.61-2.5,6.37-4.68,13.44-6.52,21.19-1.85,7.76-2.88,15.13-3.1,22.14-.22,7.01.65,13.28,2.61,18.8,1.96,5.53,5.55,9.14,10.76,10.83,4.13,1.49,8.37,1.7,12.72.64,4.35-1.06,8.48-2.97,12.39-5.74,3.91-2.76,7.5-6.26,10.76-10.51,3.26-4.25,5.87-8.92,7.83-14.02,2.61-5.94,4.73-8.76,6.36-8.44,1.63.32,1.58,3.66-.16,10.04-1.74,7.01-4.35,14.55-7.83,22.62-3.48,8.08-7.88,15.29-13.21,21.67-5.33,6.37-11.69,11.37-19.08,14.97-7.4,3.61-15.98,4.57-25.77,2.87Z"/>
        <path class="cls-15" d="M830.81,70.73c-1.96,3.61-4.08,8.23-6.36,13.86-2.28,5.63-4.52,11.84-6.69,18.64-2.18,6.8-4.35,13.81-6.52,21.03-2.18,7.22-4.19,14.18-6.03,20.87-1.85,6.69-3.48,12.85-4.89,18.48-1.42,5.63-2.56,10.15-3.42,13.54-1.09,4.89-1.36,8.5-.82,10.83.54,2.34,1.36,3.61,2.45,3.82,1.74-.21,3.48-1.38,5.22-3.5,1.74-2.12,3.42-4.78,5.06-7.97,1.63-3.19,3.04-6.64,4.24-10.36,1.19-3.71,2.23-7.17,3.1-10.36,1.52-6.16,3.31-9.03,5.38-8.6,2.06.43,2.33,3.82.82,10.2-.87,3.19-2.12,8.23-3.75,15.13-1.63,6.91-4.03,13.81-7.18,20.71-3.15,6.91-7.18,13.01-12.07,18.32-4.89,5.31-10.93,7.97-18.1,7.97-4.13,0-8.05-1.32-11.74-3.98-3.7-2.65-6.2-6.64-7.5-11.95-2.61,5.1-6.25,9.03-10.93,11.79-4.68,2.76-9.3,4.14-13.86,4.14-10.66,0-18.43-4.09-23.32-12.27-4.89-8.17-7.5-18.48-7.83-30.91-.33-12.43,1.36-25.81,5.06-40.15,3.7-14.34,8.75-27.72,15.17-40.15,6.41-12.43,13.91-22.73,22.51-30.91,8.59-8.17,17.66-12.27,27.24-12.27,5.65,0,10.06,1.33,13.21,3.98,3.15,2.66,5.27,6.21,6.36,10.67,3.91-3.19,8.32-5.68,13.21-7.49,4.89-1.8,9.3-2.81,13.21-3.03,3.91-.21,6.85.48,8.81,2.07,1.96,1.59,1.96,4.2,0,7.81ZM746,185.44c1.3.43,3.1-1.48,5.38-5.74,2.28-4.25,4.67-9.66,7.18-16.25,2.5-6.58,4.94-13.75,7.34-21.51,2.39-7.75,4.35-15.03,5.87-21.83,1.52-6.8,2.45-12.59,2.77-17.36.33-4.78-.16-7.38-1.47-7.81-1.52-.42-3.42,1.43-5.71,5.58-2.28,4.14-4.68,9.51-7.18,16.09-2.5,6.59-4.89,13.81-7.18,21.67-2.28,7.86-4.19,15.19-5.71,21.99-1.52,6.8-2.5,12.59-2.94,17.37-.44,4.78.11,7.38,1.63,7.81Z"/>
        <path class="cls-15" d="M884.63,56.72c7.18,0,12.5,2.34,15.98,7.01,3.69-12.11,6.41-22.89,8.15-32.34,1.74-9.45,1.74-16.51,0-21.19-1.3-3.61-.6-6.37,2.12-8.28,2.72-1.91,6.2-2.39,10.44-1.43,4.24.96,8.53,3.56,12.88,7.81,4.35,4.25,7.39,10.62,9.13,19.12.87,3.82.76,9.08-.33,15.77-1.09,6.69-2.77,14.29-5.06,22.78-2.28,8.5-4.95,17.58-7.99,27.24-3.05,9.67-6.09,19.39-9.13,29.15-3.05,9.77-5.93,19.39-8.64,28.84-2.72,9.45-4.84,18.11-6.36,25.97-1.09,5.1-1.14,8.82-.16,11.15.98,2.34,2.33,3.5,4.08,3.5,1.96,0,3.8-1.06,5.55-3.19,1.74-2.12,3.42-4.83,5.06-8.12,1.63-3.29,3.1-6.8,4.4-10.51,1.3-3.71,2.39-7.17,3.26-10.36,1.74-6.16,3.53-9.03,5.38-8.6,1.85.43,2.01,3.82.49,10.2-.65,3.19-1.85,8.23-3.59,15.13-1.74,6.91-4.13,13.81-7.18,20.71-3.05,6.91-7.01,13.01-11.91,18.32-4.89,5.31-10.93,7.97-18.1,7.97-6.31,0-11.15-1.59-14.51-4.78-3.37-3.19-5.93-6.8-7.67-10.83-2.61,4.89-6.25,8.71-10.93,11.47-4.68,2.76-9.41,4.14-14.19,4.14-10.66,0-18.43-4.09-23.32-12.27-4.89-8.17-7.5-18.48-7.83-30.91-.33-12.43,1.36-25.81,5.06-40.15,3.7-14.34,8.75-27.72,15.17-40.15,6.41-12.43,13.91-22.73,22.51-30.91,8.59-8.17,17.66-12.27,27.24-12.27ZM854.95,185.44c1.3.43,3.1-1.48,5.38-5.74,2.28-4.25,4.67-9.66,7.18-16.25,2.5-6.58,4.89-13.75,7.18-21.51,2.28-7.75,4.18-15.03,5.71-21.83,1.52-6.8,2.45-12.59,2.77-17.36.33-4.78-.16-7.38-1.47-7.81-1.52-.42-3.37,1.43-5.54,5.58-2.18,4.14-4.52,9.51-7.01,16.09-2.5,6.59-4.95,13.81-7.34,21.67-2.4,7.86-4.3,15.19-5.71,21.99-1.42,6.8-2.34,12.59-2.77,17.37-.44,4.78.11,7.38,1.63,7.81Z"/>
        <path class="cls-15" d="M999.44,56.72c8.91,0,16.09,2.39,21.53,7.17,5.43,4.78,9.35,11.05,11.74,18.8,2.39,7.76,3.48,16.62,3.26,26.61-.22,9.99-1.52,20.23-3.91,30.75-2.4,10.52-5.76,20.77-10.11,30.75-4.35,9.99-9.41,18.85-15.17,26.6-5.76,7.76-12.13,14.02-19.08,18.8-6.96,4.78-14.25,7.17-21.85,7.17-9.35,0-16.91-2.39-22.67-7.17-5.76-4.78-9.95-11.04-12.56-18.8-2.61-7.75-3.75-16.62-3.42-26.6.33-9.98,1.74-20.23,4.24-30.75,2.5-10.51,6.03-20.76,10.6-30.75,4.57-9.98,9.79-18.85,15.66-26.61,5.87-7.75,12.4-14.02,19.57-18.8,7.18-4.78,14.57-7.17,22.18-7.17ZM968.13,185.12c1.52,0,3.48-2.23,5.87-6.69,2.39-4.46,4.78-10.04,7.18-16.73,2.39-6.69,4.73-13.91,7.01-21.67,2.28-7.75,4.13-14.97,5.55-21.67,1.41-6.69,2.28-12.27,2.61-16.73.33-4.46-.16-6.69-1.47-6.69-1.74,0-3.75,2.23-6.03,6.69-2.28,4.46-4.57,10.04-6.85,16.73-2.28,6.69-4.46,13.92-6.52,21.67-2.07,7.76-3.81,14.98-5.22,21.67-1.42,6.69-2.4,12.27-2.94,16.73-.55,4.46-.28,6.69.82,6.69Z"/>
      </g>
      <g>
        <path class="cls-13" d="M166.1,334.52c0,6.04-1.69,10.9-5.07,14.59-3.38,3.69-8.12,5.53-14.19,5.53h-28.83v-93.58l26.03-.14c6.08,0,11.28,2.11,15.59,6.33,4.31,4.22,6.47,9.3,6.47,15.24v52.04ZM151.39,330.66v-44.88c0-4.6-.59-7.72-1.78-9.35-1.58-1.92-4.79-2.88-9.64-2.88h-7.26v69.04l9.64.14c3.66,0,6.18-1.2,7.56-3.59.99-1.73,1.48-4.56,1.48-8.49Z"/>
        <path class="cls-13" d="M221.84,334.46c0,5.92-2.16,10.98-6.47,15.18-4.32,4.2-9.51,6.3-15.59,6.3h-3.82c-6.08,0-11.28-2.1-15.59-6.3-4.32-4.2-6.47-9.26-6.47-15.18v-26.07c0-5.92,2.16-10.98,6.47-15.18,4.31-4.2,9.51-6.3,15.59-6.3h3.82c6.08,0,11.28,2.1,15.59,6.3,4.31,4.2,6.47,9.26,6.47,15.18v26.07ZM207.13,330.62v-18.82c0-7.98-3.19-11.98-9.56-11.98-5.98,0-8.97,3.99-8.97,11.98v18.82c0,7.98,3.19,11.98,9.56,11.98,5.98,0,8.97-3.99,8.97-11.98Z"/>
        <path class="cls-13" d="M276.41,334.41c0,5.93-2.16,11.01-6.47,15.21-4.32,4.21-9.51,6.31-15.59,6.31h-3.82c-6.08,0-11.28-2.1-15.59-6.3-4.32-4.2-6.47-9.26-6.47-15.18v-26.07c0-5.92,2.16-10.98,6.47-15.18,4.31-4.2,9.51-6.3,15.59-6.3h3.82c6.08,0,11.28,2.11,15.59,6.31,4.31,4.21,6.47,9.28,6.47,15.21v7.61h-14.71c0-5.03-.39-8.58-1.18-10.67-1.37-3.7-4.17-5.55-8.38-5.55-5.98,0-8.97,3.99-8.97,11.98v18.82c0,7.98,3.19,11.98,9.56,11.98,4.31,0,7.06-1.77,8.24-5.31.49-1.63.74-5.17.74-10.62h14.71v7.75Z"/>
        <path class="cls-13" d="M330.25,334.41c0,5.93-2.16,11.01-6.47,15.21-4.32,4.21-9.51,6.31-15.59,6.31h-3.82c-6.08,0-11.28-2.1-15.59-6.3-4.32-4.2-6.47-9.26-6.47-15.18v-26.07c0-5.92,2.16-10.98,6.47-15.18,4.31-4.2,9.51-6.3,15.59-6.3h3.82c6.08,0,11.28,2.11,15.59,6.31,4.31,4.21,6.47,9.28,6.47,15.21v19.81h-33.24v2.42c0,4.45,1.02,7.58,3.06,9.38,2.04,1.8,5.4,2.7,10.07,2.7,2.63,0,4.42-2.77,5.4-8.32h14.71ZM315.54,316.33v-4.55c0-7.97-3.19-11.95-9.56-11.95-5.98,0-8.97,4.02-8.97,12.06v4.45h18.53Z"/>
        <path class="cls-13" d="M385.26,334.99c0,5.93-2.16,11-6.47,15.21-4.32,4.21-9.51,6.31-15.59,6.31h-3.82c-5.59,0-10.44-1.77-14.56-5.31-4.12-3.54-6.57-7.99-7.35-13.35h15.44c1.37,3.83,4.27,5.74,8.68,5.74,2.35,0,4.44-.78,6.25-2.35,1.81-1.57,2.72-3.44,2.72-5.62,0-5.12-3.68-7.68-11.03-7.68-6.28,0-11.52-1.72-15.74-5.17-4.51-3.63-6.77-8.42-6.77-14.35s2.16-11,6.47-15.21c4.31-4.21,9.51-6.31,15.59-6.31h3.82c5.59,0,10.47,1.79,14.64,5.38,4.17,3.59,6.59,8.06,7.28,13.42h-15.44c-1.28-3.92-4.17-5.89-8.68-5.89-2.45,0-4.56.74-6.33,2.2-1.76,1.47-2.65,3.39-2.65,5.76,0,5.12,3.68,7.68,11.03,7.68,6.27,0,11.52,1.68,15.74,5.02,4.51,3.64,6.77,8.47,6.77,14.5Z"/>
        <path class="cls-13" d="M467.33,334.41c0,5.93-2.16,11.01-6.47,15.21-4.32,4.21-9.51,6.31-15.59,6.31h-3.82c-6.08,0-11.28-2.1-15.59-6.3-4.32-4.2-6.47-9.26-6.47-15.18v-26.07c0-5.92,2.16-10.98,6.47-15.18,4.31-4.2,9.51-6.3,15.59-6.3h3.82c6.08,0,11.28,2.11,15.59,6.31,4.31,4.21,6.47,9.28,6.47,15.21v19.81h-33.24v2.42c0,4.45,1.02,7.58,3.06,9.38,2.04,1.8,5.4,2.7,10.07,2.7,2.63,0,4.42-2.77,5.4-8.32h14.71ZM452.62,316.33v-4.55c0-7.97-3.19-11.95-9.56-11.95-5.98,0-8.97,4.02-8.97,12.06v4.45h18.53Z"/>
        <path class="cls-13" d="M551.02,287.33h-14.71c0-4.55-.44-7.86-1.32-9.95-1.47-3.22-4.22-4.83-8.24-4.83-5.98,0-8.97,4.11-8.97,12.32,0,5.35.39,9.17,1.18,11.46,1.48,4.2,4.28,6.3,8.42,6.3,6.2,0,11.7,2.08,16.47,6.23,4.78,4.16,7.17,9.19,7.17,15.12v11.75c0,5.93-2.17,10.99-6.49,15.19-4.33,4.2-9.54,6.3-15.64,6.3h-3.84c-6.1,0-11.31-2.11-15.64-6.31-4.33-4.21-6.49-9.28-6.49-15.21v-6.17h14.71c-.1,9.86,3.09,14.78,9.56,14.78,3.73,0,6.28-1.34,7.65-4.01.88-1.81,1.32-4.77,1.32-8.88,0-10.51-3.13-15.76-9.38-15.76s-11.79-2.05-16.62-6.16c-4.83-4.11-7.24-9.17-7.24-15.19v-13.18c0-5.92,2.16-10.99,6.49-15.19,4.33-4.2,9.54-6.3,15.64-6.3h3.84c6.1,0,11.31,2.11,15.64,6.32,4.33,4.21,6.49,9.28,6.49,15.21v6.17Z"/>
        <path class="cls-13" d="M607.94,354.65h-14.71v-4.88c-.2,4.12-4.41,6.17-12.65,6.17-5.69,0-10.89-1.81-15.59-5.44-5-3.91-7.5-8.53-7.5-13.87,0-3.43.98-6.89,2.94-10.37,1.96-3.48,4.36-6.27,7.21-8.37,3.43-2.48,7.99-3.72,13.68-3.72,4.9,0,8.87.67,11.91,2.01v-3.87c0-8.04-3.19-12.06-9.56-12.06-2.75,0-4.81.72-6.18,2.15-.98,1.05-1.96,3.06-2.94,6.03h-14.56c0-5.93,2.16-11,6.47-15.21,4.31-4.21,9.51-6.31,15.59-6.31h3.82c6.08,0,11.28,2.11,15.59,6.31,4.31,4.21,6.47,9.28,6.47,15.21v46.22ZM593.23,334.63c0-2.56-1.06-4.75-3.16-6.55-2.11-1.8-4.49-2.71-7.13-2.71s-5.22,1.02-7.72,3.06-3.75,4.3-3.75,6.76,1.32,4.51,3.97,6.12c2.35,1.52,4.85,2.28,7.5,2.28s5.02-.88,7.13-2.64c2.11-1.76,3.16-3.87,3.16-6.34Z"/>
        <path class="cls-13" d="M632.8,261.5v93.15h-15.3v-93.29l15.3.14Z"/>
        <path class="cls-13" d="M691.34,359.82c0,6.03-2.75,11.2-8.24,15.5-5.1,4.21-10.79,6.31-17.06,6.31s-11.74-2.59-16.69-7.77c-4.95-5.18-7.43-10.87-7.43-17.06h15.43c-.1,7.94,3.21,11.91,9.94,11.91s9.64-4.09,9.64-12.26c0-.97-.2-2.68-.59-5.11-2.18,2.78-5.94,4.16-11.28,4.16-6.13,0-11.37-2.11-15.73-6.33-4.35-4.22-6.53-9.3-6.53-15.25v-26.18c0-6.71,2.4-12.03,7.21-15.97,4.51-3.74,10.25-5.61,17.21-5.61,1.57,0,3.38.62,5.44,1.84,2.06,1.23,3.48,2.53,4.27,3.9v-4.02h14.41v71.91ZM676.19,327.29v-4.86c-.1-2.19-.15-3.86-.15-5.01,0-6.2-.25-10.11-.74-11.73-1.18-4.01-4.12-6.01-8.82-6.01-5.98,0-8.97,4.01-8.97,12.02v18.88c0,8.01,3.18,12.02,9.56,12.02,3.92,0,6.57-1.72,7.94-5.15.78-2.19,1.18-5.58,1.18-10.16Z"/>
        <path class="cls-13" d="M749.88,354.65h-14.71v-4.88c-.2,4.12-4.41,6.17-12.65,6.17-5.69,0-10.89-1.81-15.59-5.44-5-3.91-7.5-8.53-7.5-13.87,0-3.43.98-6.89,2.94-10.37,1.96-3.48,4.36-6.27,7.21-8.37,3.43-2.48,7.99-3.72,13.68-3.72,4.9,0,8.87.67,11.91,2.01v-3.87c0-8.04-3.19-12.06-9.56-12.06-2.75,0-4.8.72-6.18,2.15-.98,1.05-1.96,3.06-2.94,6.03h-14.56c0-5.93,2.16-11,6.47-15.21,4.31-4.21,9.51-6.31,15.59-6.31h3.82c6.08,0,11.28,2.11,15.59,6.31,4.31,4.21,6.47,9.28,6.47,15.21v46.22ZM735.17,334.63c0-2.56-1.05-4.75-3.16-6.55-2.11-1.8-4.49-2.71-7.13-2.71s-5.22,1.02-7.72,3.06c-2.5,2.04-3.75,4.3-3.75,6.76s1.32,4.51,3.97,6.12c2.35,1.52,4.85,2.28,7.5,2.28s5.02-.88,7.13-2.64c2.11-1.76,3.16-3.87,3.16-6.34Z"/>
        <path class="cls-13" d="M806.95,261.36v93.29h-14.12v-4.16c-1.96,3.64-5.98,5.45-12.06,5.45s-11.28-2.1-15.59-6.3c-4.32-4.2-6.47-9.26-6.47-15.18v-26.07c0-5.92,2.14-10.98,6.42-15.18,4.27-4.2,9.43-6.3,15.45-6.3h3.79c2.72,0,5.15,1.34,7.29,4.02v-29.42l15.3-.14ZM791.65,307.95c0-5.42-2.92-8.13-8.75-8.13-6.32,0-9.48,3.99-9.48,11.98v18.82c0,7.98,2.99,11.98,8.97,11.98,2.45,0,4.61-.81,6.47-2.42,1.86-1.61,2.79-3.61,2.79-5.99v-26.23Z"/>
        <path class="cls-13" d="M863.29,334.46c0,5.92-2.16,10.98-6.47,15.18-4.32,4.2-9.51,6.3-15.59,6.3h-3.82c-6.08,0-11.28-2.1-15.59-6.3-4.32-4.2-6.47-9.26-6.47-15.18v-26.07c0-5.92,2.16-10.98,6.47-15.18,4.31-4.2,9.51-6.3,15.59-6.3h3.82c6.08,0,11.27,2.1,15.59,6.3,4.31,4.2,6.47,9.26,6.47,15.18v26.07ZM848.58,330.62v-18.82c0-7.98-3.19-11.98-9.56-11.98-5.98,0-8.97,3.99-8.97,11.98v18.82c0,7.98,3.19,11.98,9.56,11.98,5.98,0,8.97-3.99,8.97-11.98Z"/>
        <path class="cls-13" d="M918,334.99c0,5.93-2.16,11-6.47,15.21-4.32,4.21-9.51,6.31-15.59,6.31h-3.82c-5.59,0-10.44-1.77-14.56-5.31-4.12-3.54-6.57-7.99-7.35-13.35h15.44c1.37,3.83,4.27,5.74,8.68,5.74,2.35,0,4.44-.78,6.25-2.35,1.81-1.57,2.72-3.44,2.72-5.62,0-5.12-3.68-7.68-11.03-7.68-6.28,0-11.52-1.72-15.74-5.17-4.51-3.63-6.77-8.42-6.77-14.35s2.16-11,6.47-15.21c4.31-4.21,9.51-6.31,15.59-6.31h3.82c5.59,0,10.47,1.79,14.64,5.38,4.17,3.59,6.59,8.06,7.28,13.42h-15.44c-1.28-3.92-4.17-5.89-8.68-5.89-2.45,0-4.56.74-6.33,2.2-1.76,1.47-2.65,3.39-2.65,5.76,0,5.12,3.68,7.68,11.03,7.68,6.27,0,11.52,1.68,15.74,5.02,4.51,3.64,6.77,8.47,6.77,14.5Z"/>
      </g>
    </g>
  </g>
</svg>