<?xml version="1.0" encoding="UTF-8"?>
<svg id="Camada_2" data-name="Camada 2" xmlns="http://www.w3.org/2000/svg" viewBox="0 0 1036 382">
  <defs>
    <style>
      .cls-1 {
        fill: #f18c32;
      }

      .cls-2 {
        fill: #e4232a;
      }
    </style>
  </defs>
  <g id="Camada_1-2" data-name="Camada 1">
    <g>
      <g>
        <path class="cls-2" d="M40.16,21.63c-1.3-3.39-.55-6.15,2.28-8.27C54.84,5.52,66.04,1.27,76.04.64,86.04,0,94.47,1.8,101.32,6.04c6.85,4.24,12.01,10.18,15.49,17.81,3.48,7.63,4.94,15.75,4.4,24.33-.55,8.59-3.26,17.02-8.15,25.29-4.89,8.27-12.23,15.06-22.02,20.36,5.22,4.03,9.02,10.02,11.42,17.97,2.39,7.95,3.31,16.76,2.77,26.4-.55,9.65-2.5,19.56-5.87,29.74-3.37,10.18-8.15,19.4-14.35,27.67-6.2,8.27-13.81,15.06-22.83,20.36-9.03,5.3-19.41,7.95-31.15,7.95l-.98-.95h-1.63c-12.18,0-20.66-5.19-25.44-15.59-2.82-6.15-3.64-14.36-2.45-24.65,1.2-10.28,3.42-21.52,6.69-33.72,3.26-12.19,7.18-24.81,11.74-37.85,4.57-13.04,8.69-25.45,12.4-37.22,3.69-11.77,6.52-22.27,8.48-31.49,1.96-9.23,2.06-16.17.33-20.84ZM41.14,176.86c-.22,3.18,1.09,5.09,3.91,5.73,2.39,0,4.84-1.54,7.34-4.61,2.5-3.07,4.73-7.05,6.69-11.93,1.96-4.88,3.64-10.28,5.06-16.22,1.41-5.93,2.28-11.77,2.61-17.5.33-5.73.11-11.02-.65-15.9-.76-4.88-2.34-8.69-4.73-11.45-3.7,12.09-7.45,24.39-11.25,36.9-3.81,12.51-6.8,24.18-8.97,34.99ZM74.74,39.13c1.3,6.79.21,16.97-3.26,30.54,4.57-1.91,8.21-4.98,10.93-9.23,2.72-4.24,4.29-8.37,4.73-12.41.43-4.03-.38-7.42-2.45-10.18-2.07-2.75-5.71-3.5-10.93-2.23l.98,3.5Z"/>
        <path class="cls-2" d="M186.29,56.62c8.91,0,16.09,2.39,21.53,7.16,5.43,4.77,9.35,11.03,11.74,18.77,2.39,7.74,3.48,16.6,3.26,26.56-.22,9.97-1.52,20.2-3.91,30.7-2.4,10.5-5.76,20.73-10.11,30.7-4.35,9.97-9.41,18.82-15.17,26.56-5.76,7.74-12.12,14-19.08,18.77-6.96,4.77-14.25,7.16-21.85,7.16-9.35,0-16.91-2.39-22.67-7.16-5.76-4.77-9.95-11.02-12.56-18.77-2.61-7.74-3.75-16.59-3.42-26.56.33-9.97,1.74-20.2,4.24-30.7,2.5-10.5,6.03-20.73,10.6-30.7,4.57-9.97,9.79-18.82,15.66-26.56,5.87-7.74,12.39-14,19.57-18.77s14.57-7.16,22.18-7.16ZM154.98,184.82c1.52,0,3.48-2.23,5.87-6.68,2.39-4.45,4.78-10.02,7.18-16.7,2.39-6.68,4.73-13.89,7.01-21.63,2.28-7.74,4.13-14.95,5.54-21.63,1.41-6.68,2.28-12.25,2.61-16.7.33-4.45-.16-6.68-1.47-6.68-1.74,0-3.75,2.23-6.03,6.68-2.28,4.45-4.57,10.02-6.85,16.7-2.28,6.68-4.46,13.89-6.52,21.63-2.07,7.74-3.81,14.95-5.22,21.63-1.42,6.68-2.4,12.25-2.94,16.7-.55,4.45-.28,6.68.82,6.68Z"/>
        <path class="cls-2" d="M390.15,159.37c1.74-6.15,3.53-9.01,5.38-8.59,1.85.43,2.01,3.82.49,10.18-.65,3.18-1.85,8.22-3.59,15.11-1.74,6.89-4.19,13.79-7.34,20.68-3.15,6.89-7.18,12.99-12.07,18.29-4.89,5.3-10.93,7.95-18.1,7.95-5.22,0-10.11-1.22-14.68-3.66-4.57-2.44-8.05-6.41-10.44-11.93-1.74-3.39-2.67-7.58-2.77-12.56-.11-4.98.21-10.55.98-16.7.76-6.15,2.01-12.72,3.75-19.72,1.74-7,3.69-14.2,5.87-21.63,1.52-5.3,2.99-10.5,4.4-15.59,1.41-5.09,2.55-9.59,3.42-13.52.87-3.92,1.3-7.05,1.3-9.38s-.65-3.5-1.96-3.5c-1.74,0-3.86,2.07-6.36,6.2-2.5,4.14-4.95,9.28-7.34,15.43-2.18,7.63-4.68,15.85-7.5,24.65-2.83,8.8-5.28,17.39-7.34,25.77-2.07,8.38-3.37,16.22-3.91,23.54-.55,7.32.38,13.31,2.77,17.97,2.17,4.45,1.9,7.95-.82,10.5-2.72,2.54-6.42,3.93-11.09,4.14-4.68.21-9.52-.95-14.52-3.5-5.01-2.55-8.81-6.57-11.42-12.09-1.96-4.45-3.05-9.49-3.26-15.11-.22-5.62.16-11.5,1.14-17.65.98-6.15,2.33-12.35,4.08-18.61,1.74-6.25,3.59-12.14,5.54-17.65,4.57-13.78,7.61-24.49,9.13-32.13,1.52-7.63.98-11.45-1.63-11.45-1.96,0-4.3,2.34-7.01,7-2.72,4.67-5.28,10.39-7.67,17.18-2.18,7.85-4.68,16.01-7.5,24.49-2.83,8.48-5.27,16.75-7.34,24.81-2.07,8.06-3.37,15.59-3.91,22.59-.55,7,.38,12.83,2.77,17.5,2.17,4.45,1.9,7.95-.82,10.5-2.72,2.54-6.42,3.93-11.09,4.14-4.68.21-9.57-.95-14.68-3.5-5.11-2.55-8.97-6.57-11.58-12.09-2.82-6.15-4.02-13.25-3.59-21.31.44-8.06,1.85-16.49,4.24-25.29,2.39-8.8,5.22-17.76,8.48-26.88,3.26-9.12,6.25-17.86,8.97-26.24,2.72-8.37,4.73-16.06,6.03-23.06,1.3-7,1.09-12.83-.65-17.5-1.3-3.39-.65-6.04,1.96-7.95,2.61-1.91,6.03-2.44,10.27-1.59,4.24.85,8.48,3.34,12.72,7.48,4.24,4.14,7.34,10.45,9.3,18.93,4.13-8.06,9.18-14.63,15.17-19.72,5.98-5.09,12.34-7.63,19.08-7.63,14.13,0,21.42,8.27,21.85,24.81,3.91-7.21,8.48-13.15,13.7-17.81,5.22-4.66,10.98-7,17.29-7,10.44,0,17.12,4.61,20.06,13.84,2.94,9.23,1.79,23.38-3.42,42.47-1.09,4.03-2.5,9.07-4.24,15.11-1.74,6.04-3.42,12.2-5.06,18.45-1.63,6.26-3.15,12.14-4.57,17.65-1.42,5.52-2.45,9.76-3.1,12.72-1.09,5.09-1.14,8.8-.16,11.13.98,2.34,2.33,3.5,4.08,3.5,1.96,0,3.8-1.06,5.55-3.18,1.74-2.12,3.42-4.82,5.06-8.11,1.63-3.29,3.1-6.78,4.4-10.5,1.3-3.71,2.39-7.16,3.26-10.34Z"/>
        <path class="cls-2" d="M425.7,21.63c-1.3-3.39-.55-6.15,2.28-8.27,12.39-7.84,23.59-12.09,33.6-12.72,10-.64,18.43,1.17,25.28,5.41,6.85,4.24,12.01,10.18,15.49,17.81,3.48,7.63,4.94,15.75,4.4,24.33-.55,8.59-3.26,17.02-8.15,25.29-4.89,8.27-12.23,15.06-22.02,20.36,5.22,4.03,9.02,10.02,11.42,17.97,2.39,7.95,3.31,16.76,2.77,26.4-.55,9.65-2.5,19.56-5.87,29.74-3.37,10.18-8.15,19.4-14.35,27.67-6.2,8.27-13.81,15.06-22.83,20.36-9.03,5.3-19.41,7.95-31.15,7.95l-.98-.95h-1.63c-12.18,0-20.66-5.19-25.44-15.59-2.82-6.15-3.64-14.36-2.45-24.65,1.2-10.28,3.42-21.52,6.69-33.72,3.26-12.19,7.18-24.81,11.74-37.85,4.57-13.04,8.69-25.45,12.4-37.22,3.69-11.77,6.52-22.27,8.48-31.49,1.96-9.23,2.06-16.17.33-20.84ZM426.68,176.86c-.22,3.18,1.09,5.09,3.91,5.73,2.39,0,4.84-1.54,7.34-4.61,2.5-3.07,4.73-7.05,6.69-11.93,1.96-4.88,3.64-10.28,5.06-16.22,1.41-5.93,2.28-11.77,2.61-17.5.33-5.73.11-11.02-.65-15.9-.76-4.88-2.34-8.69-4.73-11.45-3.7,12.09-7.45,24.39-11.25,36.9-3.81,12.51-6.8,24.18-8.97,34.99ZM460.28,39.13c1.3,6.79.21,16.97-3.26,30.54,4.57-1.91,8.21-4.98,10.93-9.23,2.72-4.24,4.29-8.37,4.73-12.41.43-4.03-.38-7.42-2.45-10.18-2.07-2.75-5.71-3.5-10.93-2.23l.98,3.5Z"/>
        <path class="cls-2" d="M571.83,56.62c8.91,0,16.09,2.39,21.53,7.16,5.43,4.77,9.35,11.03,11.74,18.77,2.39,7.74,3.48,16.6,3.26,26.56-.22,9.97-1.52,20.2-3.91,30.7-2.4,10.5-5.76,20.73-10.11,30.7-4.35,9.97-9.41,18.82-15.17,26.56-5.76,7.74-12.13,14-19.08,18.77-6.96,4.77-14.25,7.16-21.85,7.16-9.35,0-16.91-2.39-22.67-7.16-5.76-4.77-9.95-11.02-12.56-18.77-2.61-7.74-3.75-16.59-3.42-26.56.33-9.97,1.74-20.2,4.24-30.7,2.5-10.5,6.03-20.73,10.6-30.7,4.57-9.97,9.79-18.82,15.66-26.56,5.87-7.74,12.39-14,19.57-18.77,7.18-4.77,14.57-7.16,22.18-7.16ZM540.52,184.82c1.52,0,3.48-2.23,5.87-6.68,2.39-4.45,4.78-10.02,7.18-16.7,2.39-6.68,4.73-13.89,7.01-21.63,2.28-7.74,4.13-14.95,5.54-21.63,1.41-6.68,2.28-12.25,2.61-16.7.33-4.45-.16-6.68-1.47-6.68-1.74,0-3.75,2.23-6.03,6.68-2.28,4.45-4.57,10.02-6.85,16.7-2.28,6.68-4.46,13.89-6.52,21.63-2.07,7.74-3.81,14.95-5.22,21.63-1.42,6.68-2.4,12.25-2.94,16.7-.55,4.45-.28,6.68.82,6.68Z"/>
        <path class="cls-2" d="M647.83,222.99c-11.74-2.33-20.61-8-26.58-17.02-5.98-9.01-9.52-19.67-10.6-31.97-1.09-12.3-.06-25.29,3.1-38.97,3.15-13.68,7.88-26.35,14.19-38.01,6.3-11.66,13.97-21.26,23-28.79,9.02-7.53,18.86-11.29,29.52-11.29,6.3,0,11.79,1.33,16.47,3.98,4.67,2.65,8.32,6.15,10.93,10.5,2.61,4.35,4.29,9.38,5.06,15.11.76,5.73.38,11.56-1.14,17.5-1.74,7.85-4.3,14.11-7.67,18.77-3.37,4.67-6.96,8.27-10.76,10.82-3.81,2.54-7.56,4.03-11.25,4.45-3.7.43-6.91.27-9.62-.48-2.72-.74-4.68-1.96-5.87-3.66-1.2-1.69-1.03-3.6.49-5.73,6.52-8.91,10.16-16.54,10.93-22.9.76-6.36-.49-9.86-3.75-10.5-1.74-.21-3.91,1.7-6.52,5.73-2.61,4.03-5.17,9.23-7.67,15.59-2.5,6.36-4.68,13.41-6.52,21.15-1.85,7.74-2.88,15.11-3.1,22.11-.22,7,.65,13.26,2.61,18.77,1.96,5.52,5.55,9.12,10.76,10.81,4.13,1.49,8.37,1.7,12.72.64,4.35-1.06,8.48-2.97,12.39-5.73,3.91-2.75,7.5-6.25,10.76-10.5,3.26-4.24,5.87-8.91,7.83-14,2.61-5.93,4.73-8.75,6.36-8.43,1.63.32,1.58,3.66-.16,10.02-1.74,7-4.35,14.53-7.83,22.58-3.48,8.06-7.88,15.27-13.21,21.63-5.33,6.36-11.69,11.35-19.08,14.95-7.4,3.6-15.98,4.56-25.77,2.86Z"/>
        <path class="cls-2" d="M830.81,70.62c-1.96,3.61-4.08,8.22-6.36,13.84-2.28,5.62-4.52,11.82-6.69,18.61-2.18,6.79-4.35,13.79-6.52,20.99-2.18,7.21-4.19,14.15-6.03,20.84-1.85,6.68-3.48,12.83-4.89,18.45-1.42,5.62-2.56,10.13-3.42,13.52-1.09,4.88-1.36,8.48-.82,10.82.54,2.34,1.36,3.61,2.45,3.82,1.74-.21,3.48-1.38,5.22-3.5,1.74-2.12,3.42-4.77,5.06-7.95,1.63-3.18,3.04-6.63,4.24-10.34,1.19-3.71,2.23-7.16,3.1-10.34,1.52-6.15,3.31-9.01,5.38-8.59,2.06.43,2.33,3.82.82,10.18-.87,3.18-2.12,8.22-3.75,15.11-1.63,6.89-4.03,13.79-7.18,20.68-3.15,6.89-7.18,12.99-12.07,18.29-4.89,5.3-10.93,7.95-18.1,7.95-4.13,0-8.05-1.32-11.74-3.98-3.7-2.65-6.2-6.63-7.5-11.93-2.61,5.09-6.25,9.02-10.93,11.77-4.68,2.76-9.3,4.14-13.86,4.14-10.66,0-18.43-4.08-23.32-12.25-4.89-8.16-7.5-18.45-7.83-30.86-.33-12.41,1.36-25.77,5.06-40.08,3.7-14.31,8.75-27.67,15.17-40.08,6.41-12.41,13.91-22.69,22.51-30.86,8.59-8.16,17.66-12.25,27.24-12.25,5.65,0,10.06,1.33,13.21,3.98,3.15,2.65,5.27,6.2,6.36,10.66,3.91-3.18,8.32-5.67,13.21-7.48,4.89-1.8,9.3-2.81,13.21-3.02,3.91-.21,6.85.48,8.81,2.07,1.96,1.59,1.96,4.19,0,7.79ZM746,185.13c1.3.43,3.1-1.48,5.38-5.73,2.28-4.24,4.67-9.65,7.18-16.22,2.5-6.57,4.94-13.73,7.34-21.47,2.39-7.74,4.35-15,5.87-21.79,1.52-6.78,2.45-12.56,2.77-17.34.33-4.77-.16-7.37-1.47-7.79-1.52-.42-3.42,1.43-5.71,5.57-2.28,4.14-4.68,9.49-7.18,16.06-2.5,6.58-4.89,13.79-7.18,21.63-2.28,7.85-4.19,15.16-5.71,21.95-1.52,6.79-2.5,12.57-2.94,17.34-.44,4.77.11,7.37,1.63,7.79Z"/>
        <path class="cls-2" d="M884.63,56.62c7.18,0,12.5,2.34,15.98,7,3.69-12.09,6.41-22.85,8.15-32.29,1.74-9.43,1.74-16.49,0-21.15-1.3-3.6-.6-6.36,2.12-8.27,2.72-1.91,6.2-2.39,10.44-1.43s8.53,3.55,12.88,7.79c4.35,4.24,7.39,10.61,9.13,19.09.87,3.82.76,9.07-.33,15.75-1.09,6.68-2.77,14.26-5.06,22.74-2.28,8.48-4.95,17.55-7.99,27.2-3.05,9.65-6.09,19.35-9.13,29.11-3.05,9.76-5.93,19.35-8.64,28.79-2.72,9.44-4.84,18.08-6.36,25.93-1.09,5.09-1.14,8.8-.16,11.13.98,2.34,2.33,3.5,4.08,3.5,1.96,0,3.8-1.06,5.55-3.18,1.74-2.12,3.42-4.82,5.06-8.11,1.63-3.29,3.1-6.78,4.4-10.5,1.3-3.71,2.39-7.16,3.26-10.34,1.74-6.15,3.53-9.01,5.38-8.59,1.85.43,2.01,3.82.49,10.18-.65,3.18-1.85,8.22-3.59,15.11-1.74,6.89-4.13,13.79-7.18,20.68-3.05,6.89-7.01,12.99-11.91,18.29-4.89,5.3-10.93,7.95-18.1,7.95-6.31,0-11.15-1.59-14.51-4.77-3.37-3.18-5.93-6.78-7.67-10.82-2.61,4.88-6.25,8.7-10.93,11.45-4.68,2.76-9.41,4.14-14.19,4.14-10.66,0-18.43-4.08-23.32-12.25-4.89-8.16-7.5-18.45-7.83-30.86-.33-12.41,1.36-25.77,5.06-40.08,3.7-14.31,8.75-27.67,15.17-40.08,6.41-12.41,13.91-22.69,22.51-30.86,8.59-8.16,17.66-12.25,27.24-12.25ZM854.95,185.13c1.3.43,3.1-1.48,5.38-5.73,2.28-4.24,4.67-9.65,7.18-16.22,2.5-6.57,4.89-13.73,7.18-21.47,2.28-7.74,4.18-15,5.71-21.79,1.52-6.78,2.45-12.56,2.77-17.34.33-4.77-.16-7.37-1.47-7.79-1.52-.42-3.37,1.43-5.54,5.57-2.18,4.14-4.52,9.49-7.01,16.06-2.5,6.58-4.95,13.79-7.34,21.63-2.4,7.85-4.3,15.16-5.71,21.95-1.42,6.79-2.34,12.57-2.77,17.34-.44,4.77.11,7.37,1.63,7.79Z"/>
        <path class="cls-2" d="M999.44,56.62c8.91,0,16.09,2.39,21.53,7.16,5.43,4.77,9.35,11.03,11.74,18.77,2.39,7.74,3.48,16.6,3.26,26.56-.22,9.97-1.52,20.2-3.91,30.7-2.4,10.5-5.76,20.73-10.11,30.7-4.35,9.97-9.41,18.82-15.17,26.56-5.76,7.74-12.13,14-19.08,18.77-6.96,4.77-14.25,7.16-21.85,7.16-9.35,0-16.91-2.39-22.67-7.16-5.76-4.77-9.95-11.02-12.56-18.77-2.61-7.74-3.75-16.59-3.42-26.56.33-9.97,1.74-20.2,4.24-30.7,2.5-10.5,6.03-20.73,10.6-30.7,4.57-9.97,9.79-18.82,15.66-26.56,5.87-7.74,12.4-14,19.57-18.77,7.18-4.77,14.57-7.16,22.18-7.16ZM968.13,184.82c1.52,0,3.48-2.23,5.87-6.68,2.39-4.45,4.78-10.02,7.18-16.7,2.39-6.68,4.73-13.89,7.01-21.63,2.28-7.74,4.13-14.95,5.55-21.63,1.41-6.68,2.28-12.25,2.61-16.7.33-4.45-.16-6.68-1.47-6.68-1.74,0-3.75,2.23-6.03,6.68-2.28,4.45-4.57,10.02-6.85,16.7-2.28,6.68-4.46,13.89-6.52,21.63-2.07,7.74-3.81,14.95-5.22,21.63-1.42,6.68-2.4,12.25-2.94,16.7-.55,4.45-.28,6.68.82,6.68Z"/>
      </g>
      <g>
        <path class="cls-1" d="M166.1,334.97c0,6.03-1.69,10.88-5.07,14.57-3.38,3.68-8.12,5.53-14.19,5.53h-28.83v-93.43l26.03-.14c6.08,0,11.28,2.11,15.59,6.32,4.31,4.21,6.47,9.28,6.47,15.21v51.95ZM151.39,331.11v-44.8c0-4.59-.59-7.7-1.78-9.33-1.58-1.91-4.79-2.87-9.64-2.87h-7.26v68.92l9.64.14c3.66,0,6.18-1.2,7.56-3.59.99-1.72,1.48-4.55,1.48-8.47Z"/>
        <path class="cls-1" d="M221.84,334.9c0,5.91-2.16,10.96-6.47,15.16-4.32,4.2-9.51,6.29-15.59,6.29h-3.82c-6.08,0-11.28-2.1-15.59-6.29-4.32-4.19-6.47-9.25-6.47-15.16v-26.03c0-5.91,2.16-10.96,6.47-15.16,4.31-4.19,9.51-6.29,15.59-6.29h3.82c6.08,0,11.28,2.1,15.59,6.29,4.31,4.2,6.47,9.25,6.47,15.16v26.03ZM207.13,331.07v-18.79c0-7.97-3.19-11.96-9.56-11.96-5.98,0-8.97,3.99-8.97,11.96v18.79c0,7.97,3.19,11.96,9.56,11.96,5.98,0,8.97-3.99,8.97-11.96Z"/>
        <path class="cls-1" d="M276.41,334.86c0,5.92-2.16,10.99-6.47,15.19-4.32,4.2-9.51,6.3-15.59,6.3h-3.82c-6.08,0-11.28-2.1-15.59-6.29-4.32-4.19-6.47-9.25-6.47-15.16v-26.03c0-5.91,2.16-10.96,6.47-15.16,4.31-4.19,9.51-6.29,15.59-6.29h3.82c6.08,0,11.28,2.1,15.59,6.3,4.31,4.21,6.47,9.27,6.47,15.19v7.59h-14.71c0-5.02-.39-8.57-1.18-10.65-1.37-3.69-4.17-5.54-8.38-5.54-5.98,0-8.97,3.99-8.97,11.96v18.79c0,7.97,3.19,11.96,9.56,11.96,4.31,0,7.06-1.77,8.24-5.3.49-1.62.74-5.16.74-10.6h14.71v7.74Z"/>
        <path class="cls-1" d="M330.25,334.86c0,5.92-2.16,10.99-6.47,15.19-4.32,4.2-9.51,6.3-15.59,6.3h-3.82c-6.08,0-11.28-2.1-15.59-6.29-4.32-4.19-6.47-9.25-6.47-15.16v-26.03c0-5.91,2.16-10.96,6.47-15.16,4.31-4.19,9.51-6.29,15.59-6.29h3.82c6.08,0,11.28,2.1,15.59,6.3,4.31,4.21,6.47,9.27,6.47,15.19v19.77h-33.24v2.41c0,4.45,1.02,7.57,3.06,9.37,2.04,1.8,5.4,2.69,10.07,2.69,2.63,0,4.42-2.77,5.4-8.31h14.71ZM315.54,316.8v-4.55c0-7.95-3.19-11.93-9.56-11.93-5.98,0-8.97,4.01-8.97,12.04v4.44h18.53Z"/>
        <path class="cls-1" d="M385.26,335.43c0,5.92-2.16,10.99-6.47,15.19-4.32,4.2-9.51,6.3-15.59,6.3h-3.82c-5.59,0-10.44-1.77-14.56-5.3-4.12-3.53-6.57-7.97-7.35-13.33h15.44c1.37,3.82,4.27,5.73,8.68,5.73,2.35,0,4.44-.78,6.25-2.34,1.81-1.56,2.72-3.43,2.72-5.61,0-5.11-3.68-7.67-11.03-7.67-6.28,0-11.52-1.72-15.74-5.16-4.51-3.63-6.77-8.4-6.77-14.33s2.16-10.98,6.47-15.19c4.31-4.2,9.51-6.3,15.59-6.3h3.82c5.59,0,10.47,1.79,14.64,5.37,4.17,3.58,6.59,8.05,7.28,13.4h-15.44c-1.28-3.92-4.17-5.88-8.68-5.88-2.45,0-4.56.73-6.33,2.2-1.76,1.47-2.65,3.39-2.65,5.75,0,5.11,3.68,7.67,11.03,7.67,6.27,0,11.52,1.67,15.74,5.01,4.51,3.63,6.77,8.45,6.77,14.47Z"/>
        <path class="cls-1" d="M467.33,334.86c0,5.92-2.16,10.99-6.47,15.19-4.32,4.2-9.51,6.3-15.59,6.3h-3.82c-6.08,0-11.28-2.1-15.59-6.29-4.32-4.19-6.47-9.25-6.47-15.16v-26.03c0-5.91,2.16-10.96,6.47-15.16,4.31-4.19,9.51-6.29,15.59-6.29h3.82c6.08,0,11.28,2.1,15.59,6.3,4.31,4.21,6.47,9.27,6.47,15.19v19.77h-33.24v2.41c0,4.45,1.02,7.57,3.06,9.37,2.04,1.8,5.4,2.69,10.07,2.69,2.63,0,4.42-2.77,5.4-8.31h14.71ZM452.62,316.8v-4.55c0-7.95-3.19-11.93-9.56-11.93-5.98,0-8.97,4.01-8.97,12.04v4.44h18.53Z"/>
        <path class="cls-1" d="M551.02,287.86h-14.71c0-4.54-.44-7.85-1.32-9.93-1.47-3.22-4.22-4.82-8.24-4.82-5.98,0-8.97,4.1-8.97,12.3,0,5.34.39,9.16,1.18,11.44,1.48,4.2,4.28,6.29,8.42,6.29,6.2,0,11.7,2.08,16.47,6.22,4.78,4.15,7.17,9.18,7.17,15.09v11.73c0,5.92-2.17,10.97-6.49,15.16-4.33,4.2-9.54,6.29-15.64,6.29h-3.84c-6.1,0-11.31-2.1-15.64-6.3-4.33-4.2-6.49-9.26-6.49-15.19v-6.16h14.71c-.1,9.84,3.09,14.76,9.56,14.76,3.73,0,6.28-1.33,7.65-4.01.88-1.81,1.32-4.77,1.32-8.87,0-10.49-3.13-15.74-9.38-15.74s-11.79-2.05-16.62-6.15c-4.83-4.1-7.24-9.16-7.24-15.16v-13.16c0-5.91,2.16-10.97,6.49-15.16,4.33-4.2,9.54-6.29,15.64-6.29h3.84c6.1,0,11.31,2.1,15.64,6.31,4.33,4.2,6.49,9.27,6.49,15.19v6.16Z"/>
        <path class="cls-1" d="M607.94,355.06h-14.71v-4.87c-.2,4.11-4.41,6.16-12.65,6.16-5.69,0-10.89-1.81-15.59-5.43-5-3.9-7.5-8.52-7.5-13.85,0-3.43.98-6.88,2.94-10.35,1.96-3.47,4.36-6.26,7.21-8.35,3.43-2.47,7.99-3.71,13.68-3.71,4.9,0,8.87.67,11.91,2.01v-3.87c0-8.02-3.19-12.04-9.56-12.04-2.75,0-4.81.72-6.18,2.15-.98,1.05-1.96,3.06-2.94,6.02h-14.56c0-5.92,2.16-10.98,6.47-15.19,4.31-4.2,9.51-6.3,15.59-6.3h3.82c6.08,0,11.28,2.1,15.59,6.3,4.31,4.21,6.47,9.27,6.47,15.19v46.14ZM593.23,335.07c0-2.56-1.06-4.74-3.16-6.54-2.11-1.8-4.49-2.7-7.13-2.7s-5.22,1.02-7.72,3.06c-2.5,2.04-3.75,4.29-3.75,6.75s1.32,4.5,3.97,6.11c2.35,1.52,4.85,2.27,7.5,2.27s5.02-.88,7.13-2.63c2.11-1.75,3.16-3.86,3.16-6.33Z"/>
        <path class="cls-1" d="M632.8,262.06v93h-15.3v-93.14l15.3.14Z"/>
        <path class="cls-1" d="M691.34,360.22c0,6.02-2.75,11.18-8.24,15.48-5.1,4.2-10.79,6.3-17.06,6.3s-11.74-2.59-16.69-7.76c-4.95-5.17-7.43-10.85-7.43-17.03h15.43c-.1,7.93,3.21,11.89,9.94,11.89s9.64-4.08,9.64-12.24c0-.97-.2-2.67-.59-5.1-2.18,2.77-5.94,4.16-11.28,4.16-6.13,0-11.37-2.1-15.73-6.32-4.35-4.21-6.53-9.29-6.53-15.22v-26.13c0-6.7,2.4-12.01,7.21-15.94,4.51-3.73,10.25-5.6,17.21-5.6,1.57,0,3.38.61,5.44,1.84,2.06,1.22,3.48,2.52,4.27,3.89v-4.01h14.41v71.79ZM676.19,327.74v-4.86c-.1-2.19-.15-3.86-.15-5,0-6.19-.25-10.09-.74-11.71-1.18-4-4.12-6-8.82-6-5.98,0-8.97,4-8.97,12v18.85c0,8,3.18,12,9.56,12,3.92,0,6.57-1.71,7.94-5.14.78-2.19,1.18-5.57,1.18-10.14Z"/>
        <path class="cls-1" d="M749.88,355.06h-14.71v-4.87c-.2,4.11-4.41,6.16-12.65,6.16-5.69,0-10.89-1.81-15.59-5.43-5-3.9-7.5-8.52-7.5-13.85,0-3.43.98-6.88,2.94-10.35,1.96-3.47,4.36-6.26,7.21-8.35,3.43-2.47,7.99-3.71,13.68-3.71,4.9,0,8.87.67,11.91,2.01v-3.87c0-8.02-3.19-12.04-9.56-12.04-2.75,0-4.8.72-6.18,2.15-.98,1.05-1.96,3.06-2.94,6.02h-14.56c0-5.92,2.16-10.98,6.47-15.19,4.31-4.2,9.51-6.3,15.59-6.3h3.82c6.08,0,11.28,2.1,15.59,6.3,4.31,4.21,6.47,9.27,6.47,15.19v46.14ZM735.17,335.07c0-2.56-1.05-4.74-3.16-6.54-2.11-1.8-4.49-2.7-7.13-2.7s-5.22,1.02-7.72,3.06c-2.5,2.04-3.75,4.29-3.75,6.75s1.32,4.5,3.97,6.11c2.35,1.52,4.85,2.27,7.5,2.27s5.02-.88,7.13-2.63c2.11-1.75,3.16-3.86,3.16-6.33Z"/>
        <path class="cls-1" d="M806.95,261.92v93.14h-14.12v-4.16c-1.96,3.63-5.98,5.44-12.06,5.44s-11.28-2.1-15.59-6.29c-4.32-4.19-6.47-9.25-6.47-15.16v-26.03c0-5.91,2.14-10.96,6.42-15.16,4.27-4.19,9.43-6.29,15.45-6.29h3.79c2.72,0,5.15,1.34,7.29,4.01v-29.37l15.3-.14ZM791.65,308.44c0-5.41-2.92-8.11-8.75-8.11-6.32,0-9.48,3.99-9.48,11.96v18.79c0,7.97,2.99,11.96,8.97,11.96,2.45,0,4.61-.81,6.47-2.42,1.86-1.61,2.79-3.61,2.79-5.98v-26.19Z"/>
        <path class="cls-1" d="M863.29,334.9c0,5.91-2.16,10.96-6.47,15.16-4.32,4.2-9.51,6.29-15.59,6.29h-3.82c-6.08,0-11.28-2.1-15.59-6.29-4.32-4.19-6.47-9.25-6.47-15.16v-26.03c0-5.91,2.16-10.96,6.47-15.16,4.31-4.19,9.51-6.29,15.59-6.29h3.82c6.08,0,11.27,2.1,15.59,6.29,4.31,4.2,6.47,9.25,6.47,15.16v26.03ZM848.58,331.07v-18.79c0-7.97-3.19-11.96-9.56-11.96-5.98,0-8.97,3.99-8.97,11.96v18.79c0,7.97,3.19,11.96,9.56,11.96,5.98,0,8.97-3.99,8.97-11.96Z"/>
        <path class="cls-1" d="M918,335.43c0,5.92-2.16,10.99-6.47,15.19-4.32,4.2-9.51,6.3-15.59,6.3h-3.82c-5.59,0-10.44-1.77-14.56-5.3-4.12-3.53-6.57-7.97-7.35-13.33h15.44c1.37,3.82,4.27,5.73,8.68,5.73,2.35,0,4.44-.78,6.25-2.34,1.81-1.56,2.72-3.43,2.72-5.61,0-5.11-3.68-7.67-11.03-7.67-6.28,0-11.52-1.72-15.74-5.16-4.51-3.63-6.77-8.4-6.77-14.33s2.16-10.98,6.47-15.19,9.51-6.3,15.59-6.3h3.82c5.59,0,10.47,1.79,14.64,5.37,4.17,3.58,6.59,8.05,7.28,13.4h-15.44c-1.28-3.92-4.17-5.88-8.68-5.88-2.45,0-4.56.73-6.33,2.2-1.76,1.47-2.65,3.39-2.65,5.75,0,5.11,3.68,7.67,11.03,7.67,6.27,0,11.52,1.67,15.74,5.01,4.51,3.63,6.77,8.45,6.77,14.47Z"/>
      </g>
    </g>
  </g>
</svg>